<svg width="59" height="42" viewBox="0 0 59 42" fill="none" xmlns="http://www.w3.org/2000/svg">
<path fill-rule="evenodd" clip-rule="evenodd" d="M58.34 17.77L51.4841 21.196L50.898 21.766C52.462 22.886 53.1351 25.219 52.3521 27.189C51.9261 28.259 51.146 29.065 50.156 29.459C49.736 29.626 49.3 29.709 48.8661 29.709C48.6711 29.709 48.4781 29.669 48.286 29.636C48.358 30.32 48.292 31.02 48.031 31.676C47.643 32.653 46.917 33.396 45.989 33.766C45.579 33.928 45.142 34.009 44.703 34.009C44.217 34.009 43.733 33.885 43.267 33.689C43.302 34.393 43.201 35.105 42.9071 35.756C42.2901 37.128 40.9891 37.916 39.5811 37.916C39.2171 37.916 38.847 37.841 38.4781 37.732C38.4631 38.142 38.3941 38.55 38.2401 38.938C37.9001 39.786 37.2631 40.433 36.446 40.758C36.07 40.908 35.6721 40.98 35.2681 40.98C34.7111 40.98 34.1441 40.84 33.618 40.562L30.118 38.762V38.764C29.396 40.314 28.028 41.278 26.55 41.278C25.94 41.278 25.337 41.106 24.812 40.78C24.042 40.303 23.505 39.545 23.21 38.67C22.64 39.003 22.007 39.19 21.35 39.19C20.8181 39.19 20.3041 39.07 19.823 38.832C18.59 38.225 17.796 36.972 17.573 35.534C17.128 35.726 16.659 35.839 16.177 35.839C15.687 35.839 15.209 35.736 14.759 35.529C13.377 34.899 12.5321 33.449 12.404 31.809C12.0491 31.932 11.679 32.005 11.299 32.005C10.859 32.005 10.425 31.917 10.014 31.745C8.03005 30.915 7.06905 28.378 7.82905 25.968L7.84905 25.906L8.32205 24.543L6.18405 20.763L0.55005 17.757C0.08305 17.509 -0.12395 16.915 0.07605 16.399L5.97005 1.23001C6.07005 0.970007 6.26405 0.764007 6.50805 0.657007C6.75105 0.549007 7.02405 0.552007 7.26805 0.660007L14.464 3.90701H18.279C20.429 1.68701 20.864 1.48201 21.059 1.39201C21.114 1.36701 21.1721 1.34601 21.232 1.33201C22.698 0.978007 32.445 -0.0259926 33.3871 7.38277e-06C34.0931 0.0320074 40.2171 2.27301 45.3791 4.20501L52.371 1.23501C52.617 1.13201 52.891 1.13701 53.134 1.25101C53.376 1.36701 53.566 1.58101 53.66 1.84601L58.8451 16.43C59.0301 16.95 58.8101 17.534 58.34 17.77ZM25.8 38.942C26.036 39.088 26.292 39.157 26.55 39.157C27.243 39.157 27.955 38.659 28.348 37.817L29.358 35.217C29.8981 34.059 29.634 32.685 28.768 32.149C28.531 32.003 28.2751 31.934 28.0161 31.934C27.423 31.934 26.8291 32.314 26.42 32.949L25.276 36.112C25.182 36.365 25.071 36.602 24.948 36.83C24.858 37.708 25.166 38.55 25.8011 38.943L25.8 38.942ZM20.6481 36.902C20.875 37.015 21.112 37.068 21.348 37.068C21.992 37.068 22.633 36.675 23.08 36.015C23.156 35.671 23.255 35.329 23.404 34.995L24.392 32.455C24.409 32.411 24.428 32.367 24.448 32.325C24.515 32.181 24.5921 32.048 24.67 31.915L25.0061 30.985C25.5161 29.609 25.094 28.082 24.064 27.575C23.838 27.465 23.601 27.411 23.364 27.411C22.562 27.411 21.768 28.025 21.348 29.008C21.326 29.084 21.3181 29.16 21.291 29.235L20.081 32.69C19.978 32.994 19.8411 33.274 19.6931 33.544C19.2111 34.907 19.632 36.401 20.6481 36.902ZM15.535 33.577C15.743 33.672 15.96 33.717 16.177 33.717C16.827 33.717 17.467 33.303 17.9 32.617L19.4361 28.367C19.4591 28.303 19.4921 28.247 19.5161 28.184C19.826 26.914 19.383 25.616 18.442 25.186C18.232 25.091 18.016 25.046 17.799 25.046C17.004 25.046 16.225 25.669 15.827 26.651C15.791 26.814 15.767 26.978 15.717 27.141C15.709 27.161 15.703 27.181 15.697 27.201L15.123 28.851C15.016 29.184 14.871 29.489 14.71 29.781L14.54 30.271C14.07 31.633 14.517 33.111 15.535 33.577ZM10.735 29.767C10.92 29.845 11.1101 29.882 11.3 29.882C11.9071 29.882 12.507 29.502 12.914 28.872L13.894 26.072C13.9141 26.017 13.94 25.968 13.96 25.915C14.114 24.782 13.66 23.695 12.813 23.342C12.627 23.264 12.437 23.227 12.247 23.227C11.43 23.227 10.623 23.907 10.287 24.972L9.70505 26.648C9.29205 27.958 9.75205 29.356 10.735 29.767ZM14.265 6.02901C14.132 6.02901 14.002 6.00101 13.88 5.94601L7.41505 3.03001L2.26005 16.3L7.32405 19C7.49205 19.09 7.63205 19.23 7.72905 19.4L9.44705 22.442C10.194 21.605 11.19 21.105 12.247 21.105C12.687 21.105 13.12 21.193 13.532 21.365C14.522 21.78 15.258 22.62 15.6521 23.658C16.2941 23.196 17.032 22.924 17.799 22.924C18.289 22.924 18.765 23.028 19.216 23.234C20.288 23.724 21.034 24.709 21.38 25.89C21.983 25.51 22.6581 25.29 23.3631 25.29C23.8931 25.29 24.407 25.41 24.89 25.648C26.394 26.388 27.253 28.09 27.206 29.921C27.471 29.857 27.7401 29.813 28.0161 29.813C28.6261 29.813 29.229 29.986 29.7561 30.313C31.5221 31.405 32.1311 33.933 31.163 36.093L30.886 36.806L34.486 38.656C34.9141 38.882 35.3741 38.923 35.759 38.769C35.972 38.684 36.259 38.499 36.417 38.106C36.6651 37.482 36.404 36.711 35.8601 36.209L32.4971 33.984C32.1331 33.744 31.974 33.291 32.057 32.866C32.072 32.706 32.111 32.55 32.197 32.406C32.492 31.912 33.104 31.768 33.564 32.084L36.4021 34.03C36.6581 34.17 36.8871 34.345 37.1021 34.535L38.708 35.598C39.564 35.982 40.6861 35.808 41.125 34.833C41.5671 33.85 41.201 32.543 40.349 31.951L34.687 28.431C34.329 28.207 34.1521 27.781 34.204 27.369C34.219 27.226 34.2581 27.084 34.3301 26.951C34.6061 26.444 35.214 26.273 35.684 26.568L41.23 30.033C41.265 30.053 41.294 30.085 41.328 30.107L43.8581 31.681C44.3341 31.924 44.8461 31.956 45.298 31.776C45.7131 31.612 46.038 31.281 46.211 30.843C46.614 29.833 46.136 28.591 45.148 28.068C45.128 28.058 45.1081 28.046 45.0881 28.034L36.76 22.854C36.405 22.634 36.226 22.212 36.274 21.801C36.286 21.651 36.322 21.501 36.397 21.361C36.671 20.853 37.2771 20.679 37.7491 20.974L48.097 27.397C48.537 27.62 49.021 27.647 49.467 27.47C49.942 27.28 50.319 26.885 50.53 26.355C50.976 25.237 50.534 23.901 49.5471 23.378L28.837 10.568L24.347 10.148C23.7591 10.663 22.3971 11.784 20.1901 13.208C17.605 14.7 15.673 13.668 14.79 12.341C13.707 10.711 13.896 8.48501 15.23 7.16601C15.605 6.75601 15.9471 6.38401 16.274 6.03101H14.264L14.265 6.02901ZM52.169 3.60501L45.765 6.32501C45.543 6.41901 45.298 6.42301 45.0731 6.33901C39.8461 4.37901 33.923 2.23401 33.243 2.11501C32.451 2.11501 23.521 3.02301 21.791 3.37501C21.423 3.64101 19.9571 5.02001 16.607 8.68701C15.8841 9.40401 15.9711 10.459 16.4021 11.107C16.9741 11.969 17.997 12.062 19.209 11.364C21.984 9.57101 23.3491 8.27401 23.3631 8.26101C23.545 8.08701 23.7831 7.99101 24.0231 7.99101C24.0531 7.99101 24.0811 7.99101 24.1101 7.99501L29.227 8.47501C29.371 8.48701 29.51 8.53501 29.635 8.61101L49.098 20.651L50.2631 19.516C50.3371 19.443 50.4201 19.384 50.5111 19.339L56.669 16.262L52.169 3.60501Z" fill="#BFAC95"/>
</svg>
