<svg width="42" height="42" viewBox="0 0 42 42" fill="none" xmlns="http://www.w3.org/2000/svg">
<path fill-rule="evenodd" clip-rule="evenodd" d="M40.428 11.653L41.968 13.19L36.793 18.356L36.536 18.1L32.939 21.69C32.796 21.83 32.611 21.902 32.425 21.902C32.239 21.902 32.053 21.832 31.911 21.69L30.877 20.657L28.374 23.155L25.621 35.732L0 41.89L6.17 16.316L18.77 13.566L21.272 11.07L20.238 10.037C19.954 9.754 19.954 9.297 20.238 9.012L23.835 5.422L23.578 5.166L28.753 0L30.293 1.538L25.633 6.19L35.766 16.306L40.428 11.653ZM19.858 15.555L7.97 18.15L3.28 37.594L12.96 27.934C11.777 26.264 11.923 23.936 13.42 22.442C14.23 21.632 15.307 21.187 16.453 21.187C17.6 21.187 18.677 21.633 19.488 22.442C21.16 24.112 21.16 26.827 19.488 28.497C18.678 29.307 17.6 29.751 16.454 29.751C15.556 29.751 14.704 29.469 13.984 28.961L4.308 38.621L23.79 33.938L26.388 22.068L29.085 19.378L22.561 12.864L19.864 15.556L19.858 15.555ZM15.538 27.335C16.324 27.701 17.314 27.589 17.945 26.96C18.767 26.138 18.767 24.8 17.945 23.98C17.545 23.58 17.015 23.36 16.451 23.36C15.888 23.36 15.358 23.58 14.959 23.98C14.306 24.63 14.194 25.598 14.577 26.384C14.847 26.254 15.177 26.294 15.402 26.517C15.625 26.74 15.667 27.067 15.54 27.337L15.538 27.335ZM24.348 6.959L21.778 9.524L22.298 10.044L22.556 9.788L32.161 19.374L31.905 19.63L32.427 20.15L34.997 17.585L24.348 6.959Z" fill="#BFAC95"/>
</svg>
