<svg width="60" height="41" viewBox="0 0 60 41" fill="none" xmlns="http://www.w3.org/2000/svg">
<path fill-rule="evenodd" clip-rule="evenodd" d="M59.34 24.745C59.34 25.755 58.71 26.617 57.82 26.972V33.159C57.82 33.653 57.414 34.054 56.915 34.054C56.415 34.054 56.01 33.654 56.01 33.158V26.97C55.12 26.615 54.488 25.754 54.488 24.743C54.488 23.733 55.118 22.871 56.01 22.516V14.47C56.01 14.318 55.885 14.195 55.732 14.195H55.707C55.664 14.222 55.627 14.255 55.579 14.277L43.845 19.584H44.165V33.644C44.165 37.194 36.511 40.428 28.105 40.428C19.701 40.428 12.045 37.195 12.045 33.645V19.585H12.365L0.635 14.276C0.248 14.102 0 13.72 0 13.3C0 12.878 0.248 12.496 0.634 12.32L27.656 0.0979883C27.942 -0.0320117 28.271 -0.0320117 28.556 0.0979883L55.58 12.32C55.626 12.342 55.664 12.376 55.707 12.403H55.732C56.882 12.403 57.819 13.33 57.819 14.47V22.518C58.709 22.873 59.34 23.735 59.34 24.745ZM14.218 33.645C14.218 34.981 19.753 38.278 28.108 38.278C36.463 38.278 41.995 34.981 41.995 33.645V20.42L28.557 26.5C28.414 26.566 28.26 26.598 28.107 26.598C27.953 26.598 27.799 26.566 27.657 26.5L14.217 20.42V33.645H14.218ZM28.13 12.403H50.535L28.107 2.25699L3.697 13.3L28.107 24.34L50.535 14.195H28.13C27.632 14.195 27.227 13.793 27.227 13.299C27.227 12.803 27.632 12.402 28.131 12.402L28.13 12.403Z" fill="#BFAC95"/>
</svg>
