<svg width="43" height="50" viewBox="0 0 43 50" fill="none" xmlns="http://www.w3.org/2000/svg">
<path fill-rule="evenodd" clip-rule="evenodd" d="M37.0095 32.173C33.4295 35.733 28.6715 37.693 23.6095 37.693C18.5475 37.693 13.7895 35.733 10.2095 32.173C6.62952 28.613 4.65952 23.88 4.65952 18.846C4.65952 13.812 6.62952 9.08 10.2095 5.52C13.7895 1.96 18.5475 0 23.6095 0C28.6715 0 33.4295 1.96 37.0095 5.52C40.5895 9.08 42.5595 13.812 42.5595 18.846C42.5595 23.88 40.5895 28.613 37.0095 32.173ZM36.5195 23.023C36.3495 22.425 36.1295 21.823 35.8875 21.218L31.7105 25.372L36.1405 29.775C37.1535 28.145 37.3005 25.803 36.5205 23.022L36.5195 23.023ZM22.0695 18.847L17.3775 14.179L12.5575 18.971C13.5775 20.798 14.9075 22.637 16.5215 24.363L22.0695 18.847ZM18.0695 25.887C19.9245 27.604 21.9195 29.009 23.9095 30.067L28.6315 25.372L23.6095 20.378L18.0695 25.888V25.887ZM23.6095 17.315L29.1495 11.805C27.4275 10.212 25.5845 8.885 23.7365 7.855L18.9165 12.648L23.6095 17.315ZM25.1495 18.847L30.1695 23.84L34.9115 19.126C33.8455 17.136 32.4185 15.166 30.6965 13.33L25.1495 18.847ZM34.6095 31.317L30.1695 26.903L25.9995 31.05C27.7995 31.772 29.5515 32.18 31.1435 32.18C32.5215 32.18 33.6835 31.89 34.6095 31.318V31.317ZM23.6095 35.527C25.8515 35.527 28.0265 35.092 30.0365 34.264C28.2365 34.104 26.3095 33.544 24.3665 32.677L21.6305 35.397C22.2845 35.474 22.9415 35.527 23.6095 35.527ZM19.0525 34.897L22.3205 31.647C20.3305 30.534 18.3585 29.117 16.5305 27.419L12.5585 31.369C14.4555 33.029 16.6685 34.226 19.0535 34.897H19.0525ZM8.07752 12.54C7.26752 14.515 6.83752 16.648 6.83752 18.846C6.83752 19.706 6.91752 20.556 7.04752 21.389L9.87952 18.57C8.87952 16.485 8.25452 14.433 8.07752 12.537V12.54ZM7.63252 23.87C8.32952 26.054 9.46552 28.084 11.0175 29.84L14.9895 25.89C13.3695 24.17 12.0235 22.373 10.9495 20.572L7.63252 23.872V23.87ZM11.5445 16.917L15.8375 12.647L11.0815 7.917C9.75952 10.059 10.0175 13.375 11.5445 16.917ZM12.6095 6.375L17.3765 11.115L21.6765 6.84C19.7185 5.997 17.8025 5.514 16.0765 5.514C14.6965 5.514 13.5365 5.804 12.6105 6.374L12.6095 6.375ZM23.6095 2.165C21.3675 2.165 19.1935 2.601 17.1825 3.429C19.1205 3.601 21.2075 4.235 23.3025 5.221L26.1675 2.373C25.3275 2.245 24.4755 2.165 23.6095 2.165ZM28.6615 2.955L25.3215 6.279C27.1685 7.356 28.9915 8.694 30.6895 10.273L34.6625 6.323C32.8985 4.778 30.8565 3.648 28.6615 2.955ZM36.2015 7.855L32.2355 11.799C33.9425 13.609 35.3805 15.556 36.5095 17.536L39.7495 14.312C39.0745 11.94 37.8715 9.74 36.2025 7.852L36.2015 7.855ZM37.5515 19.563C37.9865 20.523 38.3475 21.486 38.6155 22.438C38.8835 23.392 39.0485 24.306 39.1325 25.183C39.9505 23.198 40.3825 21.056 40.3825 18.846C40.3825 18.182 40.3285 17.526 40.2525 16.876L37.5525 19.563H37.5515ZM8.44652 33.926C16.8085 42.242 30.4115 42.242 38.7725 33.926L40.3125 35.458C35.9845 39.763 30.3795 42.018 24.6985 42.276V47.674H33.6465V49.84H13.5715V47.674H22.5215V42.276C16.8415 42.016 11.2355 39.763 6.90652 35.458C-2.30348 26.298 -2.30348 11.395 6.90652 2.235L8.44652 3.767C0.0865231 12.081 0.0865231 25.611 8.44652 33.926Z" fill="#BFAC95"/>
</svg>
