<svg width="77" height="66" viewBox="0 0 77 66" fill="none" xmlns="http://www.w3.org/2000/svg">
<path d="M76.6901 21.6446C76.3517 21.0858 75.8173 20.7247 75.176 20.6559L40.0149 0.55455C39.6765 0.236436 38.9729 0.0558848 38.492 0.0128965C38.394 -0.00429884 38.5543 -0.00429884 38.4653 0.0128965C37.9843 0.0558848 37.2897 0.236436 36.9334 0.55455L1.77231 20.6559C1.16669 20.7419 0.258276 21.1116 0 22.5474C0.0356242 22.3496 -0.160309 24.4475 1.78121 24.7054L12.9049 31.0591C12.896 31.1365 12.8603 31.1966 12.8603 31.2826V40.869C12.7802 41.4107 12.9761 41.9523 13.3502 42.3736C13.6619 42.8207 14.1072 43.1216 14.6238 43.2248L37.1472 55.5624C38.0111 56.0439 38.9729 56.0439 39.7032 55.5968L53.4809 47.9879V59.0273L49.7671 62.5781C48.9477 63.3691 48.9477 64.6244 49.7671 65.4068C50.5775 66.1977 51.9045 66.1977 52.715 65.4068L55.6005 62.6469L58.4683 65.4068C59.2787 66.1977 60.5879 66.1977 61.3984 65.4068C62.2088 64.6244 62.2088 63.3691 61.3984 62.5781L57.7469 59.0617V45.7009L62.3246 43.2506C62.8768 43.156 63.3488 42.8465 63.6783 42.3736C64.0524 41.9609 64.2305 41.4279 64.1593 40.8948V31.2826C64.1593 31.2052 64.1236 31.1365 64.1236 31.0591L75.2473 24.6968C75.8351 24.6022 76.3784 24.3013 76.6901 23.7769C76.8148 23.5791 76.8682 23.3556 76.9038 23.1406C76.9216 23.1062 76.9394 23.0804 76.9484 23.046V23.0203C77.073 22.5388 76.9662 22.0917 76.6901 21.6446ZM53.4809 43.4225L38.4296 51.5043L17.1442 40.0007V33.4664L36.978 44.7896C37.3253 45.1077 37.9576 45.2882 38.4386 45.3226C38.5365 45.3398 38.4386 45.3398 38.5365 45.3226C39.0085 45.2968 39.7121 45.1249 40.0505 44.7982L53.4809 37.129V43.4225ZM59.8932 40.035L57.7558 41.1699V34.7045L59.8932 33.4836V40.035ZM56.1972 30.9645L39.9971 19.7102C38.9729 19.1427 37.6637 19.4866 37.0759 20.4668C36.4881 21.4555 36.8355 22.7193 37.8597 23.2868L52.2608 33.2085L38.5098 41.0668L6.33221 22.6763L38.4742 4.29454L70.6607 22.7021L56.1972 30.9645Z" fill="black"/>
</svg>
