<svg width="56" height="55" viewBox="0 0 56 55" fill="none" xmlns="http://www.w3.org/2000/svg">
<path d="M33.9239 54.4174C26.084 54.4174 18.9876 51.2695 15.4731 46.222C15.0676 45.6793 13.9187 44.2681 12.6346 42.6399C8.78221 37.8095 6.48432 34.8786 6.07881 34.2274C5.26778 33.0333 4.38918 32.0564 3.57816 31.5136C2.49679 30.8081 1.82094 29.8854 1.21268 29.0713C0.671995 28.3114 0.46924 26.5204 1.48302 25.1635C2.22645 24.1323 3.57816 23.5353 5.06503 23.5353C7.22775 23.5353 9.66082 24.1866 11.5532 25.2178C12.8373 25.9234 14.4594 27.0089 16.0814 28.7456V12.1377C16.0814 9.53251 18.7172 7.36154 22.0289 7.36154C23.3806 7.36154 24.6647 7.74146 25.6109 8.33848V6.1675C25.6109 3.56233 28.2467 1.39136 31.5584 1.39136C34.8025 1.39136 37.5059 3.50806 37.5059 6.1675V6.43887C38.3845 5.89613 39.4659 5.62476 40.6148 5.62476C43.5886 5.62476 46.0216 7.57864 46.0216 9.96671V12.789C46.9002 12.3005 47.9816 12.0291 49.1305 12.0291C52.1043 12.0291 54.5373 13.983 54.5373 16.3711V39.6548C53.3884 52.7349 42.9127 54.4174 33.9239 54.4174ZM4.18642 27.7687C4.59193 28.3114 4.99744 28.9085 5.6733 29.3427C6.88983 30.1025 8.03877 31.3508 9.05255 32.9248C9.45806 33.5761 13.378 38.515 15.4731 41.1745C16.8248 42.857 17.9062 44.2681 18.3117 44.8109L18.3793 44.8651C21.2855 49.0985 27.233 51.7037 33.9239 51.7037C42.3044 51.7037 50.1443 50.2383 51.0905 39.492V16.3711C51.0905 15.4484 50.2119 14.7429 49.0629 14.7429C47.914 14.7429 47.0354 15.4484 47.0354 16.3711V27.0089C47.0354 27.9858 46.0216 28.7999 44.8051 28.7999C43.5886 28.7999 42.5748 27.9858 42.5748 27.0089V9.96671C42.5748 9.04404 41.6962 8.33848 40.5472 8.33848C39.3983 8.33848 38.5197 9.04404 38.5197 9.96671V25.2721C38.5197 26.249 37.5059 27.0631 36.2894 27.0631C35.0728 27.0631 34.0591 26.249 34.0591 25.2721V6.11323C34.0591 4.97347 32.9101 4.0508 31.4908 4.0508C30.0715 4.0508 28.9226 4.97347 28.9226 6.11323V25.2721C28.9226 26.249 27.9088 27.0631 26.6923 27.0631C25.4757 27.0631 24.462 26.249 24.462 25.2721V12.0834C24.462 10.9436 23.313 10.021 21.8937 10.021C20.4744 10.021 19.5282 10.9436 19.5282 12.0834V30.9166C19.5282 31.2965 19.5282 31.5679 19.5282 31.8393V33.8474L17.5683 33.5761C16.4193 33.4132 15.4056 32.8705 14.7973 32.0021C13.1077 29.614 11.0801 28.2029 9.7284 27.4431C8.3767 26.6832 6.5519 26.1947 5.13261 26.1947C4.65952 26.1947 4.52435 26.3576 4.38918 26.4661C4.05125 26.9003 4.11884 27.5516 4.18642 27.7687Z" fill="#F86624" stroke="#F86624"/>
</svg>
