<svg width="84" height="57" viewBox="0 0 84 57" fill="none" xmlns="http://www.w3.org/2000/svg">
<path d="M82.9159 18.8752C82.55 18.398 81.9723 18.0896 81.279 18.0309L43.2634 0.864927C42.8975 0.593267 42.1368 0.439081 41.6168 0.402371C41.5109 0.387686 41.6842 0.387686 41.588 0.402371C41.068 0.439081 40.3169 0.593267 39.9318 0.864927L1.91618 18.0309C1.26141 18.1043 0.279243 18.42 0 19.6462C0.0385163 19.4773 -0.173323 21.2688 1.92581 21.489L13.9525 26.9149C13.9429 26.981 13.9044 27.0324 13.9044 27.1058V35.2923C13.8177 35.7548 14.0296 36.2174 14.434 36.5772C14.771 36.959 15.2524 37.2159 15.8109 37.304L40.1629 47.84C41.0969 48.2512 42.1368 48.2512 42.9264 47.8694L57.8226 41.3716V50.7989L53.8072 53.8312C52.9214 54.5067 52.9214 55.5787 53.8072 56.2468C54.6835 56.9223 56.1182 56.9223 56.9945 56.2468L60.1143 53.89L63.2148 56.2468C64.0911 56.9223 65.5066 56.9223 66.3828 56.2468C67.2591 55.5787 67.2591 54.5067 66.3828 53.8312L62.4349 50.8283V39.4186L67.3842 37.3261C67.9812 37.2453 68.4916 36.981 68.8479 36.5772C69.2523 36.2247 69.4449 35.7695 69.3678 35.3143V27.1058C69.3678 27.0397 69.3293 26.981 69.3293 26.9149L81.356 21.4817C81.9915 21.4009 82.5789 21.144 82.9159 20.6961C83.0507 20.5272 83.1085 20.3363 83.147 20.1528C83.1663 20.1234 83.1855 20.1014 83.1952 20.072V20.05C83.33 19.6388 83.2144 19.257 82.9159 18.8752ZM57.8226 37.4729L41.5494 44.3745L18.536 34.5507V28.9707L39.9799 38.6403C40.3554 38.912 41.0391 39.0662 41.5591 39.0955C41.665 39.1102 41.5591 39.1102 41.665 39.0955C42.1753 39.0735 42.936 38.9267 43.3019 38.6477L57.8226 32.0985V37.4729ZM64.7555 34.5801L62.4445 35.5493V30.028L64.7555 28.9854V34.5801ZM60.7594 26.8341L43.2442 17.2232C42.1368 16.7387 40.7213 17.0324 40.0858 17.8694C39.4503 18.7137 39.8258 19.793 40.9332 20.2776L56.5034 28.7504L41.6361 35.4612L6.84627 19.7563L41.5976 4.05876L76.397 19.7783L60.7594 26.8341Z" fill="#F86624"/>
</svg>
