<svg width="69" height="57" viewBox="0 0 69 57" fill="none" xmlns="http://www.w3.org/2000/svg">
<path d="M66.4196 41.1888V49.0685C66.4232 49.8 66.2406 50.5241 65.8835 51.1943C65.5264 51.8645 65.0026 52.4662 64.3458 52.9607C63.6889 53.4552 62.9134 53.8317 62.069 54.0661C61.2245 54.3004 60.3298 54.3875 59.442 54.3216C49.5927 53.4434 40.1318 50.6816 31.8195 46.2581C24.0859 42.2254 17.5292 36.8449 12.615 30.4986C7.20564 23.6464 3.8393 15.8449 2.78867 7.72619C2.70869 6.99985 2.81388 6.26781 3.09755 5.57666C3.38122 4.88552 3.83715 4.25041 4.43631 3.71179C5.03548 3.17316 5.76475 2.74281 6.5777 2.44814C7.39064 2.15347 8.26945 2.00094 9.15817 2.00025H18.7604C20.3138 1.98771 21.8197 2.4391 22.9975 3.27029C24.1752 4.10148 24.9445 5.25575 25.1619 6.51796C25.5672 9.03965 26.3188 11.5156 27.4025 13.8986C27.8331 14.8388 27.9263 15.8605 27.671 16.8427C27.4157 17.825 26.8227 18.7266 25.9621 19.4407L21.8972 22.7765C26.4536 29.3522 33.0884 34.7968 41.1017 38.5359L45.1666 35.2002C46.0369 34.494 47.1356 34.0073 48.3326 33.7978C49.5295 33.5883 50.7746 33.6648 51.9202 34.0182C54.8242 34.9074 57.8414 35.5242 60.9143 35.8568C62.4691 36.0368 63.8891 36.6795 64.9042 37.6626C65.9192 38.6457 66.4586 39.9006 66.4196 41.1888Z" stroke="#F86624" stroke-width="4" stroke-linecap="round" stroke-linejoin="round"/>
</svg>
