<svg width="62" height="52" viewBox="0 0 62 52" fill="none" xmlns="http://www.w3.org/2000/svg">
<path d="M0 5.78454V12.8286C0 14.1925 1.32082 15.3192 2.929 15.3192H10.7517V46.4106C10.7518 49.3771 13.6045 51.7965 17.1023 51.7965H55.7177C55.7732 51.7914 55.8282 51.7814 55.8819 51.7685C59.0774 51.4918 61.5852 49.1911 61.5852 46.41V43.5033C61.5852 42.1393 60.2645 41.0176 58.6562 41.0176H50.8335V39.3594C50.8315 38.9015 50.392 38.5317 49.852 38.5335C49.3144 38.5344 48.8785 38.9034 48.8764 39.3594V46.8197C48.8823 46.8731 48.8946 46.9258 48.9126 46.9766C49.0646 48.1963 49.7003 49.2972 50.6539 50.1376H17.1023C14.6611 50.1376 12.7069 48.4803 12.7069 46.4099V5.36755C12.7069 4.10121 11.7974 2.83621 10.9255 2.04952H44.4753C46.9165 2.04952 48.8764 3.71338 48.8764 5.78377V13.6602C48.8784 14.1162 49.3144 14.4852 49.8521 14.4861C50.392 14.4879 50.8314 14.1181 50.8335 13.6602V5.78377C50.8335 2.81724 47.9731 0.390118 44.4753 0.391358L5.7797 0.404024C2.56589 0.404024 1.92179e-05 3.00395 0 5.78454ZM6.35061 2.05029C8.7918 2.05029 10.7517 3.71416 10.7517 5.78454V13.661H2.929C2.37751 13.661 1.95521 13.2963 1.95521 12.8286V5.78454C1.95522 3.71416 3.90942 2.05029 6.35061 2.05029ZM6.84132 3.70853C5.23314 3.70853 3.91042 4.83032 3.91042 6.19419V11.1705C3.90846 11.6283 4.34429 12.0011 4.88421 12.0028C5.42487 12.002 5.86201 11.629 5.85989 11.1705V6.19419C5.85989 5.72647 6.28983 5.36832 6.84132 5.36832C7.38123 5.36665 7.81721 4.99391 7.8151 4.53603C7.81412 4.07997 7.379 3.71033 6.84132 3.70853ZM32.2571 3.70853C31.1889 3.70853 30.3019 4.46233 30.3019 5.36832V7.02656C30.3019 7.93255 31.1889 8.68472 32.2571 8.68472H34.2123C35.2806 8.68472 36.1694 7.93255 36.1694 7.02656V5.36832C36.1694 4.46233 35.2806 3.70853 34.2123 3.70853H32.2571ZM32.2571 5.36832H34.2123V7.02656H32.2571V5.36832ZM39.0984 5.36832C38.5615 5.36996 38.1267 5.73882 38.1246 6.19419C38.1227 6.6521 38.5585 7.02476 39.0984 7.02656H45.9474C46.4873 7.02489 46.9233 6.6521 46.9212 6.19419C46.9192 5.73882 46.4843 5.37009 45.9474 5.36832H39.0984ZM22.483 5.80392C21.8812 5.80392 21.2785 5.97857 20.797 6.32858L15.002 10.5389C14.5912 10.8363 14.5424 11.3597 14.8932 11.708C15.2438 12.0565 15.8611 12.0978 16.2718 11.8004L17.5931 10.8417V14.4869C17.5931 15.3929 18.48 16.1451 19.5483 16.1451H25.4158C26.484 16.1451 27.371 15.3929 27.371 14.4869V10.8466L28.6847 11.8004C29.0965 12.1021 29.7197 12.0608 30.0709 11.708C30.4216 11.3597 30.3729 10.8362 29.962 10.5389L24.167 6.32858C23.6855 5.97857 23.0848 5.80392 22.483 5.80392ZM22.483 7.4573C22.6265 7.4573 22.769 7.50232 22.8897 7.59014L25.4158 9.42487V14.4869H19.5483V9.42324L22.0744 7.59014C22.1951 7.50232 22.3395 7.4573 22.483 7.4573ZM38.1246 8.68472C37.5847 8.68308 37.1453 9.05269 37.1432 9.5106C37.1413 9.97103 37.5817 10.3448 38.1246 10.343H45.9474C46.4873 10.3413 46.9233 9.9685 46.9212 9.5106C46.9192 9.05522 46.4843 8.68652 45.9474 8.68472H38.1246ZM22.4792 9.5106C21.9392 9.51224 21.5033 9.88506 21.5054 10.343V12.0028C21.5073 12.4582 21.9422 12.8269 22.4792 12.8286C23.0191 12.8304 23.4585 12.4607 23.4606 12.0028V10.343C23.4625 9.88252 23.0221 9.5088 22.4792 9.5106ZM32.2571 12.0028C31.7202 12.0045 31.2854 12.3732 31.2833 12.8286C31.2814 13.2865 31.7172 13.6592 32.2571 13.661H34.2123C34.753 13.6601 35.1901 13.2871 35.188 12.8286C35.1861 12.3726 34.75 12.0037 34.2123 12.0028H32.2571ZM38.1246 12.0028C37.5847 12.0012 37.1453 12.3707 37.1432 12.8286C37.1413 13.2891 37.5817 13.6628 38.1246 13.661H45.9474C46.4873 13.6592 46.9233 13.2865 46.9212 12.8286C46.9192 12.3732 46.4843 12.0046 45.9474 12.0028H38.1246ZM47.1656 15.5297C46.3381 15.5474 45.5349 15.9162 45.0958 16.5612L43.5339 18.8527C43.1016 18.9779 42.7191 19.2277 42.4761 19.5845L40.8531 21.9666C39.9845 21.7414 39.12 21.6325 38.2831 21.7091C37.1894 21.809 36.1157 22.3048 35.5126 23.1907L32.1922 28.0747C31.4773 29.1248 31.7239 30.3164 32.177 31.2875C32.4859 31.9497 32.8602 32.5318 33.3532 32.9764L32.2075 34.6589C32.1561 34.7336 32.1184 34.8138 32.0968 34.8936L30.554 38.3686C30.0986 39.3994 30.6139 40.5841 31.7512 41.141C32.8884 41.6978 34.3479 41.4824 35.1728 40.6324L38.0082 37.7144C38.0573 37.6699 38.1003 37.6221 38.1381 37.5671L38.4321 37.1332C38.4676 37.0901 38.4983 37.0448 38.5237 36.9972L39.8794 35.0039C40.2396 35.1398 40.6368 35.2159 41.0536 35.2159H45.8252C47.024 35.9887 48.2732 36.5285 49.6267 36.7106C50.9454 36.888 52.3455 36.8827 53.9343 36.8774C54.3435 37.8379 55.435 38.534 56.6991 38.534H58.6562C59.7245 38.534 60.6114 37.7818 60.6114 36.8758V26.9233C60.6114 26.0173 59.7245 25.2651 58.6562 25.2651H56.699C55.4342 25.2651 54.3429 25.962 53.9342 26.9233H49.852C49.2503 26.9233 48.0717 26.3629 47.5626 25.8464C47.287 25.5669 46.9874 25.2948 46.669 25.0302L48.4008 22.4863C48.6449 22.1277 48.7083 21.7185 48.6185 21.3365L49.1989 20.4832L50.4706 21.105L48.271 24.334C47.9995 24.7297 48.1576 25.2372 48.6242 25.4675C49.0926 25.7008 49.6955 25.5657 49.9665 25.1664L53.8712 19.4193C54.1414 19.0239 53.9834 18.5176 53.518 18.2874C53.0267 18.0467 52.4791 18.156 52.1814 18.5935L51.4482 19.6688L50.1766 19.0454C50.8444 18.0627 50.4395 16.7867 49.2811 16.2196L48.4371 15.8034C48.0387 15.6083 47.599 15.5203 47.1656 15.5297ZM47.4558 17.2349L48.3074 17.651C48.5512 17.7705 48.6276 18.0143 48.4869 18.221L47.2611 20.012L45.5674 19.1862L46.7914 17.3887C46.9822 17.1086 47.2858 17.1519 47.4558 17.2349ZM15.6379 18.6308C15.0979 18.6326 14.662 19.0052 14.6641 19.4631C14.666 19.9185 15.1009 20.2872 15.6379 20.289H29.3281C29.8651 20.2872 30.2998 19.9185 30.3019 19.4631C30.3039 19.0052 29.8681 18.6326 29.3281 18.6308H15.6379ZM33.2385 18.6308C32.6956 18.6289 32.255 19.0027 32.2571 19.4631C32.2591 19.921 32.6986 20.2908 33.2385 20.289H37.1432C37.6832 20.2908 38.1226 19.921 38.1247 19.4631C38.1266 19.0027 37.6861 18.629 37.1432 18.6308H33.2385ZM46.7054 21.6605L40.857 30.2479C39.3396 30.3353 38.1247 31.4179 38.1247 32.7255C38.1247 33.1181 38.2339 33.4913 38.4283 33.8234L37.3705 35.3764C37.003 35.1344 36.5946 34.8962 36.1466 34.6768C35.7005 34.4584 35.2566 34.2789 34.8291 34.1295L44.164 20.412L46.7054 21.6605ZM19.5483 21.9473C19.0084 21.9491 18.5724 22.3217 18.5745 22.7796C18.5755 23.2356 19.0106 23.6053 19.5483 23.6071H25.4158C25.9535 23.6053 26.3885 23.2356 26.3896 22.7796C26.3915 22.3217 25.9557 21.9491 25.4158 21.9473H19.5483ZM29.3281 21.9473C28.7852 21.9455 28.3446 22.3192 28.3467 22.7796C28.3477 23.2381 28.7875 23.6089 29.3281 23.6071H32.2571C32.7978 23.6089 33.2375 23.2381 33.2385 22.7796C33.2405 22.3192 32.8 21.9455 32.2571 21.9473H29.3281ZM15.6379 21.9498C15.0972 21.9479 14.6575 22.3188 14.6564 22.7773C14.6545 23.2377 15.095 23.6115 15.6379 23.6097C16.1785 23.6087 16.6157 23.2358 16.6136 22.7773C16.6126 22.3207 16.1763 21.9507 15.6379 21.9498ZM39.8393 23.4542L34.4396 31.3808C34.2749 31.1715 34.113 30.9309 33.9966 30.6813C33.6708 29.9831 33.6313 29.2767 33.8877 28.9L37.2081 24.0161C37.7701 23.1906 38.7002 23.1953 39.8393 23.4542ZM15.6379 25.2646C15.0979 25.2664 14.662 25.639 14.6641 26.0969C14.666 26.5523 15.1009 26.921 15.6379 26.9228H18.5745C19.1114 26.9211 19.5462 26.5523 19.5483 26.0969C19.5502 25.639 19.1144 25.2663 18.5745 25.2646H15.6379ZM22.4792 25.2646C21.9393 25.2664 21.5033 25.639 21.5054 26.0969C21.5074 26.5523 21.9422 26.921 22.4792 26.9228H30.3019C30.8418 26.9246 31.2812 26.5548 31.2833 26.0969C31.2853 25.6365 30.8448 25.2628 30.3019 25.2646H22.4792ZM45.6534 26.5196C45.7968 26.6497 45.9334 26.7809 46.062 26.9115C46.9346 27.7968 48.2941 28.581 49.8521 28.581H53.7625V35.2171C52.2511 35.2188 50.9853 35.212 49.9304 35.0698C48.6519 34.8977 47.6585 34.5654 46.589 33.7662C46.4116 33.6331 46.1841 33.5584 45.9474 33.5572H41.0536C40.5021 33.5572 40.0799 33.1927 40.0799 32.7249C40.0799 32.2572 40.5021 31.899 41.0536 31.899H47.9026C48.4427 31.8974 48.8785 31.5247 48.8764 31.0666C48.8744 30.611 48.4399 30.2423 47.9026 30.2408H43.1196L45.6534 26.5196ZM56.6991 26.9228H58.6562V36.8753H56.6991C56.1476 36.8753 55.7177 36.5107 55.7177 36.043V27.7552C55.7177 27.2875 56.1476 26.9228 56.6991 26.9228ZM21.5054 28.581C20.9647 28.5791 20.525 28.95 20.524 29.4085C20.522 29.8689 20.9625 30.2427 21.5054 30.2408H29.3281C29.8681 30.239 30.304 29.8664 30.3019 29.4085C30.3009 28.9525 29.8658 28.5827 29.3281 28.581H21.5054ZM20.524 44.0846C21.2073 44.0846 21.8928 43.9257 22.4563 43.5519C23.0198 43.178 23.432 42.5454 23.432 41.8451V41.0176C23.432 40.5499 23.8543 40.1917 24.4058 40.1917C24.9573 40.1917 25.3872 40.5499 25.3872 41.0176V41.8451C25.3872 43.3861 26.3883 44.604 27.7759 44.9284C28.4696 45.0903 29.2656 45.002 29.9048 44.6353C30.5441 44.2684 31.0048 43.6582 31.2471 42.8913C31.3866 42.4485 31.0762 41.9938 30.554 41.8759C30.0326 41.7575 29.4966 42.0202 29.3568 42.4622C29.2062 42.9389 28.9803 43.1594 28.8069 43.2589C28.6335 43.3581 28.4884 43.3705 28.2952 43.3255C27.9088 43.2351 27.3348 42.7916 27.3348 41.8452V41.0177C27.3348 39.6538 26.014 38.5337 24.4058 38.5337C22.7976 38.5337 21.4749 39.6538 21.4749 41.0177V41.8452C21.4749 42.0608 21.406 42.1395 21.2515 42.242C21.097 42.3445 20.8183 42.433 20.524 42.433C19.9995 42.433 19.5139 42.2946 19.0652 41.9958C19.4872 41.4345 19.7937 40.8303 20.0027 40.2097C20.5456 38.5983 20.524 36.8737 20.524 35.2156V33.5574C20.524 32.1935 19.2027 31.0669 17.5559 31.0669C15.9283 31.0669 14.6641 32.2147 14.6641 33.5573V35.2156C14.6641 37.6905 15.1556 39.8126 16.1133 41.3982C16.2434 41.6139 16.3856 41.8192 16.5372 42.0152C16.1715 42.2897 15.7333 42.539 15.2044 42.7633C14.72 42.967 14.5223 43.4654 14.7633 43.8759C15.0034 44.2877 15.5925 44.4554 16.077 44.2499C16.7409 43.9685 17.3134 43.6335 17.816 43.252C18.6043 43.7734 19.5163 44.0846 20.524 44.0846ZM18.5745 33.5579V35.2161C18.5745 36.8743 18.5548 38.4613 18.1201 39.7518C18.0272 40.0276 17.9204 40.2901 17.7917 40.5388C17.0748 39.2916 16.6193 37.4357 16.6193 35.2169V33.5578C16.6193 33.0901 17.0416 32.7255 17.5931 32.7255C18.1446 32.7255 18.5745 33.0901 18.5745 33.5579ZM33.8763 35.5934C34.2981 35.7316 34.7392 35.9042 35.1728 36.1164C35.6073 36.3293 36.0034 36.5685 36.3547 36.8111L33.6644 39.5802C33.4383 39.813 33.0799 39.876 32.7268 39.7035C32.3738 39.5306 32.2622 39.2329 32.387 38.9504L33.8763 35.5934ZM41.5444 37.9091C39.5311 37.9091 37.8275 39.1103 37.38 40.7073H37.1433C36.6033 40.7091 36.1674 41.0817 36.1695 41.5396C36.1714 41.9949 36.6063 42.3637 37.1433 42.3655H37.38C37.8256 43.9635 39.5292 45.1621 41.5444 45.1621C43.5596 45.1621 45.2651 43.9635 45.7106 42.3655H45.9474C46.4843 42.3637 46.9191 41.9949 46.9212 41.5396C46.9232 41.0817 46.4873 40.7091 45.9474 40.7073H45.7106C45.2631 39.1103 43.5577 37.9091 41.5444 37.9091ZM41.5444 39.5688C42.4863 39.5688 43.2876 40.0321 43.6542 40.7073H39.4345C39.8011 40.0321 40.6025 39.5688 41.5444 39.5688ZM39.4326 42.3655H43.6562C43.2907 43.0414 42.4885 43.5038 41.5444 43.5038C40.6003 43.5038 39.7981 43.0414 39.4326 42.3655ZM50.8335 42.6779H55.7177V45.9943C55.7177 46.462 55.2954 46.8201 54.7439 46.8201C54.201 46.8183 53.7604 47.1921 53.7625 47.6525C53.7635 48.1111 54.2033 48.4818 54.7439 48.48C56.3521 48.48 57.6748 47.3581 57.6748 45.9943V42.6779H58.6563C59.2078 42.6779 59.6301 43.036 59.6301 43.5037V46.4104C59.63 48.4808 57.6758 50.1382 55.2347 50.1382C52.7935 50.1382 50.8335 48.4808 50.8335 46.4104V42.6779ZM16.6193 46.8201C16.0764 46.8183 15.6358 47.1921 15.6379 47.6525C15.6389 48.1111 16.0786 48.4818 16.6193 48.48H18.5745C19.1122 48.4782 19.5473 48.1085 19.5483 47.6525C19.5503 47.1946 19.1144 46.8219 18.5745 46.8201H16.6193ZM22.4792 46.8201C21.9393 46.822 21.5033 47.1946 21.5054 47.6525C21.5064 48.1085 21.9415 48.4782 22.4792 48.48H29.3281C29.8658 48.4782 30.3009 48.1085 30.3019 47.6525C30.3039 47.1946 29.8681 46.8219 29.3281 46.8201H22.4792ZM38.1247 46.8201C37.5818 46.8183 37.1411 47.1921 37.1433 47.6525C37.1442 48.1111 37.584 48.4818 38.1247 48.48H44.966C45.5067 48.4818 45.9464 48.1111 45.9474 47.6525C45.9494 47.1921 45.5089 46.8184 44.966 46.8201H38.1247Z" fill="#F86624"/>
</svg>
