<svg width="52" height="54" viewBox="0 0 52 54" fill="none" xmlns="http://www.w3.org/2000/svg">
<g clip-path="url(#clip0_681_1338)">
<path fill-rule="evenodd" clip-rule="evenodd" d="M46.913 53.342H4.638C2.08 53.342 0 51.235 0 48.645V18.8L5.028 14.942V6.60799H15.893L23.518 0.759995C24.874 -0.250005 26.678 -0.252005 28.02 0.749995L35.658 6.60799H46.524V14.942L51.552 18.799V48.644C51.552 51.234 49.472 53.341 46.912 53.341L46.913 53.342ZM46.568 50.785L26.648 35.93C26.138 35.552 25.414 35.55 24.904 35.93L4.984 50.786H46.57L46.568 50.785ZM30.476 36.14L37.29 29.9H14.263L21.076 36.14L23.656 34.215C24.894 33.292 26.66 33.295 27.896 34.215L30.476 36.14ZM5.028 18.15L3.068 19.652L5.028 21.446V18.15ZM5.028 24.34V24.318L2.525 22.026V48.646C2.525 49.058 2.645 49.442 2.848 49.77C2.886 49.732 2.915 49.696 2.956 49.658C2.981 49.636 3.006 49.614 3.036 49.594L19.346 37.428L5.053 24.34H5.028ZM26.51 2.798C26.075 2.475 25.476 2.475 25.03 2.808L20.075 6.60799H31.477L26.51 2.798ZM44 9.165H7.552V23.757L11.937 27.772V27.77H39.613V27.773L44 23.758V9.165ZM46.524 18.149V21.445L48.484 19.651L46.524 18.149ZM49.027 22.025L46.524 24.317V24.339H46.5L32.203 37.428L48.517 49.594C48.544 49.614 48.57 49.636 48.597 49.658C48.637 49.696 48.665 49.732 48.703 49.768C48.903 49.441 49.026 49.058 49.026 48.645L49.027 22.025ZM11.937 21.408H39.614V23.538H11.938L11.937 21.408ZM11.937 15.046H39.614V17.176H11.938L11.937 15.046Z" fill="#FF7800"/>
</g>
<defs>
<clipPath id="clip0_681_1338">
<rect width="52" height="54" fill="white"/>
</clipPath>
</defs>
</svg>
