<svg width="28" height="28" viewBox="0 0 28 28" fill="none" xmlns="http://www.w3.org/2000/svg">
<g clip-path="url(#clip0_791_1333)">
<path d="M28 14C28 6.26722 21.7328 0 14 0C6.26722 0 0 6.26722 0 14C0 20.9891 5.11875 26.7805 11.8125 27.8305V18.0469H8.25778V14H11.8125V10.9156C11.8125 7.4074 13.9016 5.46875 17.1008 5.46875C18.632 5.46875 20.2344 5.74219 20.2344 5.74219V9.1875H18.468C16.7289 9.1875 16.1875 10.2676 16.1875 11.375V14H20.0703L19.4496 18.0469H16.1875V27.8305C22.8813 26.7805 28 20.9891 28 14Z" fill="#1877F2"/>
<path d="M19.4497 18.0469L20.0703 14H16.1875V11.375C16.1875 10.2676 16.7289 9.1875 18.468 9.1875H20.2344V5.74219C20.2344 5.74219 18.6321 5.46875 17.1008 5.46875C13.9016 5.46875 11.8126 7.4074 11.8126 10.9156V14H8.25778V18.0469H11.8126V27.8305C12.5262 27.9426 13.2562 28 14 28C14.7437 28 15.4738 27.9426 16.1875 27.8305V18.0469H19.4497Z" fill="white"/>
</g>
<defs>
<clipPath id="clip0_791_1333">
<rect width="28" height="28" fill="white"/>
</clipPath>
</defs>
</svg>
