<svg width="28" height="28" viewBox="0 0 28 28" fill="none" xmlns="http://www.w3.org/2000/svg">
<g clip-path="url(#clip0_791_1322)">
<path d="M0 14C0 6.26803 6.26803 0 14 0C21.732 0 28 6.26803 28 14C28 21.732 21.732 28 14 28C6.26803 28 0 21.732 0 14Z" fill="#FF0000"/>
<path d="M21.1564 10.5428C20.9847 9.88307 20.4787 9.36355 19.8361 9.18721C18.6716 8.86678 14.0018 8.86678 14.0018 8.86678C14.0018 8.86678 9.33199 8.86678 8.16748 9.18721C7.52494 9.36355 7.0189 9.88307 6.84717 10.5428C6.53514 11.7385 6.53514 14.2334 6.53514 14.2334C6.53514 14.2334 6.53514 16.7282 6.84717 17.9241C7.0189 18.5838 7.52494 19.1033 8.16748 19.2797C9.33199 19.6001 14.0018 19.6001 14.0018 19.6001C14.0018 19.6001 18.6716 19.6001 19.8361 19.2797C20.4787 19.1033 20.9847 18.5838 21.1564 17.9241C21.4685 16.7282 21.4685 14.2334 21.4685 14.2334C21.4685 14.2334 21.4685 11.7385 21.1564 10.5428Z" fill="white"/>
<path d="M12.6009 16.7999V12.1332L16.3343 14.4667L12.6009 16.7999Z" fill="#FF0000"/>
</g>
<defs>
<clipPath id="clip0_791_1322">
<rect width="28" height="28" fill="white"/>
</clipPath>
</defs>
</svg>
