<svg width="37" height="42" viewBox="0 0 37 42" fill="none" xmlns="http://www.w3.org/2000/svg">
<path d="M0.211907 0.212013L0 0.415443V21.0213V41.6271L0.211907 41.8306L0.415338 42.0425H15.5964H30.7774L30.9808 41.8306L31.1927 41.6271V39.1436V36.66L31.803 36.3803L32.4133 36.1091L35.2105 38.8893C38.3637 42.0255 38.3298 42.0001 39.4995 42.0001C40.2624 41.9916 40.7455 41.7882 41.271 41.2627C41.7966 40.7287 41.9915 40.254 42 39.4996C42 38.3299 42.0254 38.3638 38.8892 35.2106L36.092 32.3965L36.3294 31.9472C37.7788 29.0822 37.5499 25.4374 35.753 22.6233C34.9053 21.301 33.4813 20.0465 32.0404 19.343L31.2012 18.9446V9.68002L31.1927 0.415443L30.9808 0.212013L30.7774 0.000106812H15.5964H0.415338L0.211907 0.212013ZM29.8365 9.95126V18.5462L29.5229 18.4699C29.3449 18.4275 28.7346 18.3682 28.1667 18.3343L27.1241 18.2835V16.1305V13.9775L26.9122 13.7741L26.7088 13.5622H15.5964H4.48395L4.28052 13.7741L4.06862 13.9775V21.0043C4.06862 27.8023 4.07709 28.0481 4.22967 28.2346L4.39072 28.438L11.3752 28.4804L18.3512 28.5228L18.4105 29.0738C18.4444 29.3789 18.5715 29.9638 18.6902 30.3706C18.8089 30.7775 18.9021 31.125 18.9021 31.1505C18.9021 31.1759 15.5625 31.1928 11.4854 31.1928H4.06862V31.8709V32.549H11.8159H19.5633L20.0549 33.2441C21.8858 35.8887 24.9881 37.4229 28.1836 37.2619C28.7431 37.2364 29.3449 37.1771 29.5229 37.1347L29.8365 37.0584V38.8723V40.6863H15.5964H1.35621V21.0213V1.35631H15.5964H29.8365V9.95126ZM25.7679 16.7153V18.5208L25.1068 18.7157C24.7508 18.8259 24.1405 19.0633 23.759 19.2413L23.0555 19.5718V19.2752V18.987H15.5964H8.13723V19.6651V20.3432H15.0115H21.8858L21.1907 21.0213L20.4957 21.6994H14.3164H8.13723V22.3775V23.0556H13.8503H19.5633L19.2581 23.7337L18.9445 24.4118H13.5451H8.13723V25.0899V25.768H13.3501C17.6476 25.768 18.5461 25.785 18.5122 25.8782C18.4868 25.946 18.4444 26.2427 18.4105 26.5394L18.3512 27.0818L11.8922 27.1073L5.42482 27.1242V21.0213V14.9184H15.5964H25.7679V16.7153ZM29.7602 19.9109C31.3029 20.3093 32.4726 20.9959 33.6085 22.1571C34.685 23.259 35.3631 24.4796 35.7445 25.9884C35.9734 26.8954 35.9479 28.8195 35.6936 29.7519C35.2698 31.3369 34.6765 32.371 33.5237 33.5238C32.3794 34.6596 31.3199 35.2784 29.7518 35.7022C28.7516 35.9735 26.9037 35.9735 25.8781 35.7022C24.3269 35.3038 23.1572 34.6257 22.0383 33.4899C21.2331 32.6762 20.6567 31.8116 20.2668 30.8453C19.826 29.7434 19.7158 29.1585 19.7158 27.8023C19.7074 26.5054 19.8515 25.7426 20.2753 24.7085C21.3518 22.1232 23.8184 20.1906 26.5901 19.7498C27.353 19.6312 29.0228 19.7159 29.7602 19.9109ZM40.6099 39.0673C40.9066 39.9573 40.1267 40.8219 39.1859 40.6524C38.9062 40.593 38.5417 40.2625 36.2192 37.9569L33.583 35.3208L34.0747 34.8885C34.3374 34.6512 34.7273 34.2613 34.9308 34.0239L35.3037 33.5831L37.9144 36.1854C39.7368 37.9993 40.5421 38.8639 40.6099 39.0673Z" fill="#BFAC95"/>
<path d="M10.8499 7.24749V10.4346L10.638 10.638C10.443 10.8414 10.3752 10.8499 9.49366 10.8499C8.61213 10.8499 8.54432 10.8414 8.34936 10.638C8.15441 10.4515 8.13746 10.3668 8.13746 9.62085V8.8156H7.45935H6.78125V9.62932C6.78125 10.0786 6.82363 10.6041 6.88297 10.7991C7.01859 11.2652 7.72212 11.9688 8.18831 12.1044C8.70537 12.257 10.3921 12.24 10.8753 12.0705C11.3584 11.9094 11.9603 11.2822 12.1044 10.7821C12.1722 10.5532 12.2061 9.47675 12.2061 7.25596V4.06888H11.528H10.8499V7.24749Z" fill="#BFAC95"/>
<path d="M14.2405 4.17907C13.8252 4.31469 13.1131 5.04365 12.986 5.47594C12.8419 5.95909 12.8419 10.3159 12.986 10.7991C13.1216 11.2652 13.8252 11.9688 14.2914 12.1044C14.8084 12.257 16.4952 12.24 16.9783 12.0705C17.4615 11.9094 18.0633 11.2822 18.2074 10.7821C18.3515 10.3244 18.3515 5.95061 18.2074 5.4929C18.0633 4.99279 17.4615 4.36555 16.9783 4.2045C16.5121 4.04345 14.7152 4.0265 14.2405 4.17907ZM16.741 5.63699L16.9529 5.84042V8.1375V10.4346L16.741 10.638C16.546 10.8414 16.4782 10.8499 15.5967 10.8499C14.7152 10.8499 14.6474 10.8414 14.4524 10.638L14.2405 10.4346V8.1375V5.84042L14.4524 5.63699C14.6474 5.43356 14.7152 5.42509 15.5967 5.42509C16.4782 5.42509 16.546 5.43356 16.741 5.63699Z" fill="#BFAC95"/>
<path d="M19.1992 4.2719L18.9873 4.48381V8.13709V11.7904L19.1992 12.0023L19.4196 12.2227L21.047 12.1888C22.6236 12.1633 22.6914 12.1548 23.0983 11.9345C23.8442 11.5446 24.3019 10.8665 24.3867 10.0358C24.446 9.51024 24.2511 8.83214 23.929 8.40833C23.7425 8.15404 23.734 8.11166 23.8442 7.98451C24.3952 7.34879 24.5477 6.16211 24.1663 5.42468C23.8951 4.90762 23.5984 4.60248 23.0983 4.33971C22.6914 4.11933 22.6236 4.11085 21.047 4.08542L19.4196 4.05152L19.1992 4.2719ZM22.7338 5.74677C22.9712 5.98411 23.0135 6.07735 23.0135 6.44183C23.0135 6.80631 22.9712 6.89955 22.7338 7.13689L22.4626 7.4166L21.403 7.44203L20.3435 7.47594V6.44183V5.40772L21.403 5.44163L22.4626 5.46706L22.7338 5.74677ZM22.7338 9.13729C22.9712 9.37462 23.0135 9.46786 23.0135 9.83234C23.0135 10.1968 22.9712 10.2901 22.7338 10.5274L22.4626 10.8071L21.403 10.8325L20.3435 10.8665V9.83234V8.79824L21.403 8.83214L22.4626 8.85757L22.7338 9.13729Z" fill="#BFAC95"/>
<path d="M4.06836 34.5831V35.2612H8.81508H13.5618V34.5831V33.905H8.81508H4.06836V34.5831Z" fill="#BFAC95"/>
<path d="M14.918 34.5831V35.2612H16.9523H18.9866V34.5831V33.905H16.9523H14.918V34.5831Z" fill="#BFAC95"/>
<path d="M9.49316 16.9528V17.6309H16.2742H23.0552V16.9528V16.2747H16.2742H9.49316V16.9528Z" fill="#BFAC95"/>
<path d="M26.5306 21.1484C22.9112 21.8774 20.5548 25.234 21.1142 28.8449C21.6398 32.2524 24.7591 34.7783 28.175 34.5579C30.3873 34.4138 32.2775 33.3119 33.4896 31.4641C34.2355 30.3282 34.5407 29.2772 34.5407 27.8023C34.5407 26.3274 34.2355 25.2848 33.4811 24.1321C31.9808 21.8265 29.1582 20.6144 26.5306 21.1484ZM28.904 22.5046C29.955 22.725 29.8448 22.0639 29.8194 27.8277L29.794 32.8457L29.3278 32.9983C28.6581 33.2271 27.4799 33.278 26.7001 33.1085C25.4541 32.8457 24.1911 32.0404 23.4283 31.0063C23.0214 30.4469 22.5891 29.4637 22.5044 28.8788L22.445 28.4804H24.5726H26.7086L26.912 28.2685L27.1239 28.0651V25.2764C27.1239 23.7422 27.1494 22.4622 27.1833 22.4368C27.285 22.3351 28.2852 22.3775 28.904 22.5046ZM25.7677 24.9627V27.1242H24.1064H22.4365L22.4959 26.7767C22.6569 25.7849 23.1825 24.8017 23.9877 23.988C24.4624 23.5218 25.4965 22.8013 25.6999 22.8013C25.7423 22.8013 25.7677 23.7761 25.7677 24.9627ZM31.8198 24.1745C33.3201 25.8528 33.6337 28.2007 32.6335 30.2096C32.3199 30.8453 31.4553 31.9557 31.2688 31.9557C31.2265 31.9557 31.1926 30.2774 31.1926 27.8023C31.1926 25.3272 31.2265 23.6489 31.2688 23.6489C31.3112 23.6489 31.5655 23.8863 31.8198 24.1745Z" fill="#BFAC95"/>
</svg>
