<svg width="61" height="58" viewBox="0 0 61 58" fill="none" xmlns="http://www.w3.org/2000/svg">
<g clip-path="url(#clip0_681_1352)">
<path fill-rule="evenodd" clip-rule="evenodd" d="M53.584 46.015L51.79 44.22C55.988 40.023 58.3 34.44 58.3 28.505C58.3 22.568 55.988 16.987 51.79 12.789L53.584 10.995C58.262 15.671 60.837 21.89 60.837 28.505C60.837 35.118 58.261 41.337 53.584 46.015ZM47.92 40.35L46.126 38.557C48.811 35.871 50.29 32.302 50.29 28.505C50.29 24.708 48.81 21.138 46.126 18.453L47.92 16.659C51.084 19.823 52.827 24.029 52.827 28.504C52.827 32.979 51.084 37.186 47.92 40.35ZM40.462 32.894C41.634 31.722 42.28 30.164 42.28 28.504C42.28 26.847 41.634 25.289 40.462 24.116L42.256 22.322C43.908 23.974 44.816 26.17 44.816 28.505C44.816 30.841 43.908 33.035 42.256 34.688L40.462 32.894ZM31.784 57.01H5.58C4.075 57.01 2.692 56.43 1.677 55.475C0.663 54.525 0 53.16 0 51.652V5.36C0 3.85 0.663 2.485 1.677 1.535C2.69 0.58 4.075 0 5.58 0H31.784C33.289 0 34.674 0.58 35.688 1.535C36.702 2.485 37.366 3.851 37.365 5.359V51.65C37.365 53.158 36.702 54.524 35.687 55.473C34.673 56.428 33.289 57.008 31.784 57.008V57.01ZM34.34 4.835C34.338 4.373 34.143 3.947 33.77 3.597C33.4 3.252 32.87 3.025 32.273 3.027H5.09C4.494 3.025 3.966 3.252 3.594 3.597C3.224 3.947 3.027 4.374 3.026 4.835V52.175C3.026 52.637 3.222 53.063 3.594 53.413C3.966 53.758 4.494 53.985 5.091 53.985H32.274C32.872 53.985 33.4 53.758 33.772 53.413C34.145 53.063 34.34 52.637 34.342 52.176V4.836L34.34 4.835ZM7.116 9.642H30.246V44.044H7.117L7.116 9.642ZM9.12 42.318H28.246V11.368H9.12V42.318ZM21.253 7.195H16.111C15.659 7.195 15.291 6.828 15.291 6.377C15.291 5.925 15.659 5.559 16.111 5.559H21.253C21.705 5.559 22.071 5.924 22.071 6.376C22.071 6.826 21.705 7.194 21.253 7.194V7.195ZM18.683 46.631C20.053 46.631 21.161 47.743 21.161 49.109C21.161 50.479 20.053 51.589 18.681 51.589C17.315 51.589 16.201 50.479 16.201 49.109C16.201 47.743 17.315 46.632 18.681 46.632L18.683 46.631Z" fill="#FF7800"/>
</g>
<defs>
<clipPath id="clip0_681_1352">
<rect width="61" height="58" fill="white"/>
</clipPath>
</defs>
</svg>
