<svg width="48" height="42" viewBox="0 0 48 42" fill="none" xmlns="http://www.w3.org/2000/svg">
<path fill-rule="evenodd" clip-rule="evenodd" d="M43.458 41.276H4.08C1.83 41.276 0 39.441 0 37.186V12.026C0 9.77 1.83 7.936 4.08 7.936H14.895V4.09C14.895 1.835 16.725 0 18.975 0H28.563C30.813 0 32.645 1.835 32.645 4.09V7.936H43.46C45.71 7.936 47.54 9.77 47.54 12.026V37.187C47.54 39.441 45.71 41.276 43.458 41.276ZM30.775 4.09C30.775 2.868 29.783 1.874 28.563 1.874H18.976C17.756 1.874 16.766 2.868 16.766 4.089V7.935H30.776L30.775 4.09ZM45.67 12.025C45.67 10.805 44.678 9.81 43.458 9.81H4.08C2.862 9.81 1.87 10.804 1.87 12.026V20.672C1.87 23.756 4.374 26.265 7.45 26.265H19.57V23.273C19.57 22.361 20.31 21.619 21.22 21.619H26.32C27.23 21.619 27.97 22.359 27.97 23.272V26.264H40.09C43.167 26.264 45.67 23.754 45.67 20.671V12.025ZM26.413 28.14H21.127V31.13C21.127 31.182 21.167 31.223 21.219 31.223H26.319C26.371 31.223 26.412 31.183 26.412 31.131V28.141L26.413 28.14ZM26.413 26.265V23.273C26.413 23.223 26.373 23.181 26.321 23.181H21.221C21.169 23.181 21.128 23.224 21.128 23.274V26.266H26.414L26.413 26.265ZM45.67 25.603C44.304 27.155 42.31 28.14 40.09 28.14H27.97V31.13C27.97 32.043 27.23 32.785 26.32 32.785H21.22C20.31 32.785 19.57 32.043 19.57 31.131V28.141H7.45C5.23 28.141 3.236 27.156 1.87 25.604V37.188C1.87 38.408 2.862 39.402 4.08 39.402H43.46C44.68 39.402 45.672 38.41 45.672 37.189V25.603H45.67Z" fill="#BFAC95"/>
</svg>
