<svg width="28" height="28" viewBox="0 0 28 28" fill="none" xmlns="http://www.w3.org/2000/svg">
<circle cx="14" cy="14" r="14" fill="black"/>
<path fill-rule="evenodd" clip-rule="evenodd" d="M12.7249 11.4812V10.7401C12.4677 10.7037 12.2084 10.6848 11.9486 10.6836C8.77192 10.6836 6.1875 13.2684 6.1875 16.4451C6.1875 18.3938 7.16139 20.1187 8.64703 21.1618C7.65227 20.098 7.09923 18.6957 7.10003 17.2393C7.10003 14.1078 9.6109 11.5543 12.7249 11.4812Z" fill="#00F2EA"/>
<path fill-rule="evenodd" clip-rule="evenodd" d="M12.8599 19.8703C14.2773 19.8703 15.4335 18.7428 15.4861 17.3377L15.4909 4.79417H17.7824C17.7335 4.53227 17.7088 4.26643 17.7085 4H14.5789L14.5736 16.544C14.5214 17.9487 13.3647 19.0757 11.9478 19.0757C11.5224 19.0759 11.1035 18.9722 10.7272 18.7737C10.9701 19.1126 11.2903 19.3889 11.6612 19.5796C12.032 19.7703 12.4429 19.8699 12.8599 19.8703ZM22.0632 9.05178V8.35464C21.221 8.35543 20.3969 8.11045 19.692 7.64969C20.31 8.36133 21.1422 8.85327 22.0636 9.05178" fill="#00F2EA"/>
<path fill-rule="evenodd" clip-rule="evenodd" d="M19.6922 7.64903C19.0013 6.85854 18.6208 5.84421 18.6213 4.79437H17.7827C17.8913 5.37464 18.1165 5.92683 18.4447 6.41751C18.7729 6.9082 19.1973 7.32716 19.6922 7.64903ZM11.948 13.8135C11.2505 13.8143 10.5818 14.0918 10.0886 14.585C9.59531 15.0782 9.31787 15.7469 9.31704 16.4445C9.31755 16.9243 9.44909 17.3949 9.69759 17.8054C9.94614 18.2158 10.302 18.5506 10.727 18.7735C10.4034 18.3273 10.2292 17.7902 10.2292 17.2391C10.2298 16.5415 10.5073 15.8727 11.0005 15.3793C11.4938 14.886 12.1626 14.6085 12.8602 14.6077C13.1313 14.6077 13.3911 14.6525 13.6364 14.7295V11.5341C13.3793 11.4977 13.1199 11.4788 12.8602 11.4776C12.8144 11.4776 12.7696 11.4802 12.7244 11.4811V13.9354C12.4733 13.8555 12.2115 13.8144 11.948 13.8135Z" fill="#FF004F"/>
<path fill-rule="evenodd" clip-rule="evenodd" d="M22.0629 9.05154V11.4841C20.4398 11.4841 18.9363 10.965 17.7082 10.0838V16.4445C17.7082 19.6212 15.1243 22.2056 11.9476 22.2056C10.72 22.2056 9.58161 21.8183 8.646 21.1612C9.18392 21.7413 9.83582 22.204 10.5609 22.5204C11.286 22.8368 12.0686 23 12.8597 22.9998C16.0363 22.9998 18.6208 20.4154 18.6208 17.2391V10.8784C19.8894 11.7906 21.4129 12.2805 22.9754 12.2787V9.14817C22.6621 9.14817 22.3575 9.11421 22.0629 9.05111" fill="#FF004F"/>
<path fill-rule="evenodd" clip-rule="evenodd" d="M17.709 16.4445V10.0838C18.9775 10.9961 20.5011 11.486 22.0637 11.4841V9.05154C21.1424 8.85284 20.3103 8.36074 19.6925 7.64903C19.1976 7.32716 18.7732 6.9082 18.445 6.41751C18.1168 5.92683 17.8915 5.37464 17.783 4.79437H15.4914L15.4866 17.3379C15.434 18.7426 14.2777 19.8701 12.8604 19.8701C12.4434 19.8697 12.0325 19.77 11.6616 19.5793C11.2908 19.3886 10.9707 19.1124 10.7277 18.7735C10.3027 18.5507 9.94665 18.216 9.69807 17.8055C9.44948 17.395 9.31783 16.9244 9.31735 16.4445C9.31815 15.7469 9.59559 15.0782 10.0888 14.585C10.582 14.0918 11.2508 13.8143 11.9483 13.8135C12.219 13.8135 12.4788 13.8579 12.7246 13.9354V11.4811C9.61063 11.5542 7.09977 14.1077 7.09977 17.2391C7.09977 18.7535 7.68811 20.1321 8.64677 21.1616C9.6132 21.842 10.7665 22.2066 11.9483 22.2056C15.125 22.2056 17.709 19.6212 17.709 16.4445Z" fill="white"/>
</svg>
