<svg width="100" height="100" viewBox="0 0 100 100" fill="none" xmlns="http://www.w3.org/2000/svg">
<path d="M36.3963 63.7587L35.635 70.47C35.5735 71.0116 35.7612 71.5519 36.1516 71.9568C36.5417 72.3616 37.0979 72.5926 37.6814 72.5926H59.4386C60.0219 72.5926 60.578 72.3614 60.9684 71.9568C61.3586 71.5519 61.5462 71.0116 61.4851 70.47L60.7237 63.7587H87.8244C92.0424 63.7587 95.4738 60.556 95.4738 56.6191V7.13952C95.4736 3.20268 92.0418 0 87.8241 0H7.64949C3.43145 0 0 3.20268 0 7.13952V56.6191C0 60.556 3.43145 63.7587 7.64949 63.7587H36.3963ZM57.1512 68.7518H39.9682L40.5345 63.7587H56.5847L57.1512 68.7518ZM7.64949 3.84107H87.8241C89.7729 3.84107 91.3581 5.32065 91.3581 7.13952V50.6995H4.11543V7.13952C4.11543 5.32065 5.70069 3.84107 7.64949 3.84107ZM4.11543 56.6191V54.5406H91.3579V56.6191C91.3579 58.438 89.7726 59.9176 87.8238 59.9176H7.64949C5.70069 59.9176 4.11543 58.438 4.11543 56.6191Z" fill="white"/>
<path d="M87.767 85.496C88.1402 84.9224 88.1657 84.2087 87.834 83.6133L83.7699 76.3155C83.4157 75.6797 82.7119 75.2808 81.944 75.2808H13.5291C12.7614 75.2808 12.0574 75.6797 11.7032 76.3155L7.6391 83.6133C7.30767 84.2087 7.33291 84.9224 7.70604 85.496C8.07917 86.0696 8.74615 86.4196 9.46497 86.4196H86.0081C86.7269 86.4199 87.3939 86.0696 87.767 85.496ZM12.8536 82.5788L14.7785 79.1221H80.6943L82.6195 82.5788H12.8536Z" fill="white"/>
<path d="M91.3583 89.8765H88.066C83.3008 89.8765 79.4238 93.4947 79.4238 97.9424C79.4238 99.0031 80.3451 99.863 81.4815 99.863H97.9424C99.0788 99.863 100 99.0031 100 97.9424C100 93.495 96.1237 89.8765 91.3583 89.8765ZM84.0348 96.0219C84.7851 94.6553 86.3106 93.7175 88.066 93.7175H91.3583C93.1137 93.7175 94.6391 94.6553 95.3898 96.0219H84.0348Z" fill="white"/>
</svg>
