<svg width="67" height="100" viewBox="0 0 67 100" fill="none" xmlns="http://www.w3.org/2000/svg">
<path d="M26.2766 96.1929C25.7718 96.1929 25.2876 96.3934 24.9306 96.7504C24.5736 97.1074 24.373 97.5916 24.373 98.0964C24.373 98.6013 24.5736 99.0855 24.9306 99.4425C25.2876 99.7995 25.7718 100 26.2766 100H40.6106C41.1154 100 41.5996 99.7995 41.9566 99.4425C42.3136 99.0855 42.5142 98.6013 42.5142 98.0964C42.5142 97.5916 42.3136 97.1074 41.9566 96.7504C41.5996 96.3934 41.1154 96.1929 40.6106 96.1929H26.2766Z" fill="white"/>
<path d="M50.7412 88.0001C50.741 87.4948 50.5402 87.0103 50.1829 86.653C49.8256 86.2958 49.3411 86.0949 48.8358 86.0947H18.0451C17.5405 86.0947 17.0566 86.2952 16.6998 86.652C16.343 87.0088 16.1426 87.4927 16.1426 87.9973C16.1426 88.5019 16.343 88.9858 16.6998 89.3426C17.0566 89.6994 17.5405 89.8998 18.0451 89.8998H48.8358C49.0857 89.9002 49.3332 89.8514 49.5641 89.7561C49.7951 89.6608 50.0051 89.521 50.182 89.3446C50.3589 89.1682 50.4994 88.9587 50.5953 88.728C50.6913 88.4973 50.7409 88.25 50.7412 88.0001Z" fill="white"/>
<path d="M66.8829 28.7586C66.874 21.1333 63.8406 13.8229 58.4483 8.43145C53.056 3.03997 45.7451 0.0077148 38.1198 1.09333e-06H28.7629C23.9963 -0.0013132 19.3042 1.18232 15.1086 3.44442C10.913 5.70651 7.3455 8.97612 4.7271 12.9591C2.10869 16.9421 0.521488 21.5135 0.108265 26.2621C-0.304959 31.0108 0.468762 35.7876 2.35982 40.163L18.7773 78.1624C18.9246 78.5035 19.1685 78.7941 19.479 78.9981C19.7894 79.2022 20.1529 79.3109 20.5244 79.3108H46.3579C46.7295 79.311 47.0931 79.2023 47.4036 78.9982C47.7142 78.7942 47.9582 78.5036 48.1055 78.1624L64.5225 40.163C66.0848 36.5642 66.8883 32.6819 66.8829 28.7586ZM61.0283 38.6535L45.1051 75.5045H35.3494V61.5422L51.7511 46.5775C52.1168 46.2349 52.3327 45.762 52.3522 45.2613C52.3716 44.7606 52.193 44.2723 51.855 43.9024C51.517 43.5325 51.0469 43.3106 50.5464 43.2849C50.046 43.2591 49.5556 43.4316 49.1814 43.765L35.3494 56.3854V26.0784C35.3494 25.5731 35.1487 25.0884 34.7913 24.7311C34.434 24.3738 33.9493 24.173 33.444 24.173C32.9387 24.173 32.454 24.3738 32.0967 24.7311C31.7394 25.0884 31.5386 25.5731 31.5386 26.0784V41.998L16.4497 28.2348C16.0765 27.894 15.5831 27.7155 15.0783 27.7385C14.5734 27.7614 14.0983 27.984 13.7576 28.3573C13.4168 28.7305 13.2383 29.2238 13.2612 29.7287C13.2842 30.2335 13.5068 30.7086 13.88 31.0494L30.9063 46.5791C31.0905 46.7449 31.3053 46.8732 31.5386 46.9568V75.5061H21.7777L5.85446 38.6535C4.21562 34.8572 3.54578 30.7131 3.90516 26.5937C4.26454 22.4744 5.64187 18.5088 7.91335 15.0536C10.1848 11.5984 13.2793 8.76172 16.9186 6.79858C20.5578 4.83544 24.6279 3.80736 28.7629 3.80674H38.1198C42.2548 3.80746 46.3248 4.83561 49.964 6.79877C53.6033 8.76194 56.6977 11.5986 58.9691 15.0538C61.2406 18.509 62.6179 22.4745 62.9773 26.5938C63.3368 30.7131 62.667 34.8572 61.0283 38.6535Z" fill="white"/>
</svg>
