<svg width="100" height="100" viewBox="0 0 100 100" fill="none" xmlns="http://www.w3.org/2000/svg">
<path d="M50 0C22.385 0 0 22.36 0 49.94C0 77.5266 22.385 99.8884 50 99.8884C77.6132 99.8884 100 77.5266 100 49.94C100 22.36 77.6132 0 50 0ZM43.6016 3.82827C39.0799 8.52827 35.2582 13.8982 32.2683 19.76C28.2832 18.115 24.585 15.9333 21.2449 13.3065C27.5801 8.34167 35.2333 4.97663 43.6016 3.82827ZM18.6449 15.5167C22.3149 18.4801 26.4065 20.9299 30.8266 22.7701C27.3216 30.5967 25.2683 39.2051 25.0449 48.2784H3.41503C3.87663 35.2899 9.65997 23.6766 18.6449 15.5167ZM3.41503 51.6067H25.0433C25.2699 60.8016 27.3734 69.5232 30.965 77.4317C26.675 79.3216 22.6984 81.8034 19.14 84.7935C9.88007 76.6083 3.88497 64.8315 3.41503 51.6067ZM21.7699 86.9699C24.9966 84.3301 28.5732 82.1317 32.4266 80.4466C35.3917 86.1801 39.1533 91.4384 43.5917 96.0549C35.4534 94.935 28 91.7116 21.7699 86.9699ZM48.3333 96.0283C43.1817 91.1966 38.8467 85.5132 35.54 79.2098C39.5783 77.7833 43.8699 76.9281 48.3333 76.7065V96.0283ZM48.3333 73.3516C43.3417 73.5866 38.5451 74.55 34.0484 76.1766C30.61 68.6616 28.6033 60.3582 28.375 51.6049H48.3333V73.3516ZM48.3333 48.2766H28.375C28.6 39.6167 30.5717 31.4 33.9435 23.9467C38.4835 25.49 43.3101 26.3949 48.3319 26.5567V48.2766H48.3333ZM48.3333 23.2317C43.8266 23.0717 39.4933 22.275 35.4051 20.9201C38.7268 14.5168 43.1134 8.74837 48.3333 3.8518V23.2317ZM96.5851 48.2766H74.9551C74.7283 39.2116 72.6502 30.61 69.1051 22.8033C73.5534 20.96 77.6667 18.4882 81.3583 15.5065C90.3433 23.6699 96.1232 35.2899 96.5851 48.2766ZM78.7467 13.3065C75.3833 15.9516 71.6601 18.15 67.6451 19.8016C64.5868 13.8917 60.6717 8.48987 56.0351 3.7799C64.5433 4.87827 72.3201 8.27337 78.7467 13.3065ZM51.6667 4.175C56.8382 8.99167 61.1882 14.6583 64.4982 20.95C60.4382 22.285 56.1382 23.0716 51.6667 23.2317V4.175ZM51.6667 26.5583C56.665 26.3949 61.4667 25.5 65.985 23.9716C69.3998 31.4049 71.3949 39.6232 71.6234 48.2783H51.6667V26.5583ZM51.6667 51.6067H71.625C71.3984 60.2183 69.4183 68.3949 66.035 75.8033C61.4984 74.285 56.6801 73.4101 51.6667 73.2966V51.6067ZM51.6667 95.7082V76.6516C56.1551 76.7567 60.4732 77.5149 64.5516 78.8348C61.235 85.1667 56.8634 90.865 51.6667 95.7082ZM56.0284 96.1067C60.6951 91.3683 64.6333 85.9234 67.7016 79.9683C71.7317 81.6116 75.465 83.8266 78.8417 86.4984C72.3933 91.5748 64.5817 95.0016 56.0284 96.1067ZM81.45 84.3C77.7467 81.2882 73.625 78.7899 69.1618 76.95C72.6734 69.1768 74.7301 60.6201 74.9567 51.6051H96.5851C96.125 64.5582 90.3833 76.1433 81.45 84.3Z" fill="#F1F9FF"/>
</svg>
