<svg width="100" height="63" viewBox="0 0 100 63" fill="none" xmlns="http://www.w3.org/2000/svg">
<path d="M71.667 21H68.3336C67.4137 21 66.667 21.4704 66.667 22.05C66.667 22.6295 67.4137 23.0999 68.3336 23.0999H71.667C72.5869 23.0999 73.3336 22.6295 73.3336 22.05C73.3336 21.4704 72.5871 21 71.667 21Z" fill="white"/>
<path d="M71.667 25.2H68.3336C67.4137 25.2 66.667 25.6704 66.667 26.2499C66.667 26.8295 67.4137 27.2999 68.3336 27.2999H71.667C72.5869 27.2999 73.3336 26.8295 73.3336 26.2499C73.3338 25.6704 72.5871 25.2 71.667 25.2Z" fill="white"/>
<path d="M71.667 16.8H68.3336C67.4137 16.8 66.667 17.2705 66.667 17.85C66.667 18.4296 67.4137 18.9 68.3336 18.9H71.667C72.5869 18.9 73.3336 18.4296 73.3336 17.85C73.3338 17.2705 72.5871 16.8 71.667 16.8Z" fill="white"/>
<path d="M71.667 50.3999H68.3336C67.4137 50.3999 66.667 50.8703 66.667 51.4499C66.667 52.0294 67.4137 52.4998 68.3336 52.4998H71.667C72.5869 52.4998 73.3336 52.0294 73.3336 51.4499C73.3336 50.8703 72.5871 50.3999 71.667 50.3999Z" fill="white"/>
<path d="M34.9996 16.8H24.9996C24.0797 16.8 23.333 17.2705 23.333 17.85V32.55C23.333 33.1296 24.0797 33.6 24.9996 33.6H34.9996C35.9195 33.6 36.6662 33.1296 36.6662 32.55V17.8501C36.6662 17.2705 35.9195 16.8 34.9996 16.8ZM33.333 31.5001H26.6664V18.9001H33.333V31.5001Z" fill="white"/>
<path d="M34.9996 50.3999H24.9996C24.0797 50.3999 23.333 50.8703 23.333 51.4499C23.333 52.0294 24.0797 52.4998 24.9996 52.4998H34.9996C35.9195 52.4998 36.6662 52.0294 36.6662 51.4499C36.6662 50.8703 35.9195 50.3999 34.9996 50.3999Z" fill="white"/>
<path d="M34.9996 54.5999H24.9996C24.0797 54.5999 23.333 55.0703 23.333 55.6498C23.333 56.2294 24.0797 56.6998 24.9996 56.6998H34.9996C35.9195 56.6998 36.6662 56.2294 36.6662 55.6498C36.6662 55.0703 35.9195 54.5999 34.9996 54.5999Z" fill="white"/>
<path d="M71.667 54.5999H68.3336C67.4137 54.5999 66.667 55.0703 66.667 55.6498C66.667 56.2294 67.4137 56.6998 68.3336 56.6998H71.667C72.5869 56.6998 73.3336 56.2294 73.3336 55.6498C73.3338 55.0703 72.5871 54.5999 71.667 54.5999Z" fill="white"/>
<path d="M91.6662 54.5999H84.9996C84.0797 54.5999 83.333 55.0703 83.333 55.6498C83.333 56.2294 84.0797 56.6998 84.9996 56.6998H91.6662C92.5861 56.6998 93.3328 56.2294 93.3328 55.6498C93.333 55.0703 92.5863 54.5999 91.6662 54.5999Z" fill="white"/>
<path d="M56.6668 17.85C56.6668 17.2705 55.9201 16.8 55.0002 16.8H48.3336C47.4137 16.8 46.667 17.2705 46.667 17.85V32.55C46.667 33.1296 47.4137 33.6 48.3336 33.6H55.0002C55.9201 33.6 56.6668 33.1296 56.6668 32.55V17.85ZM53.3336 31.5H50.0002V18.9H53.3336V31.5Z" fill="white"/>
<path d="M91.6662 50.3999H84.9996C84.0797 50.3999 83.333 50.8703 83.333 51.4499C83.333 52.0294 84.0797 52.4998 84.9996 52.4998H91.6662C92.5861 52.4998 93.3328 52.0294 93.3328 51.4499C93.3328 50.8703 92.5863 50.3999 91.6662 50.3999Z" fill="white"/>
<path d="M55.0002 54.5999H48.3336C47.4137 54.5999 46.667 55.0703 46.667 55.6498C46.667 56.2294 47.4137 56.6998 48.3336 56.6998H55.0002C55.9201 56.6998 56.6668 56.2294 56.6668 55.6498C56.6668 55.0703 55.9201 54.5999 55.0002 54.5999Z" fill="white"/>
<path d="M84.9996 37.8001C85.9195 37.8001 86.6662 37.3297 86.6662 36.7501V26.2502C86.6662 25.6706 85.9195 25.2002 84.9996 25.2002C84.0797 25.2002 83.333 25.6706 83.333 26.2502V36.7501C83.333 37.3297 84.0797 37.8001 84.9996 37.8001Z" fill="white"/>
<path d="M93.3332 26.2499C93.3332 25.6704 92.5865 25.2 91.6666 25.2C90.7467 25.2 90 25.6704 90 26.2499V36.7499C90 37.3294 90.7467 37.7998 91.6666 37.7998C92.5865 37.7998 93.3332 37.3294 93.3332 36.7499V26.2499Z" fill="white"/>
<path d="M95 8.40004H85C84.0801 8.40004 83.3334 8.87045 83.3334 9.45C83.3334 10.0296 84.0801 10.5 85 10.5H95C95.9184 10.5 96.6666 10.9714 96.6666 11.5499V59.85C96.6666 60.4286 95.9184 60.9 95 60.9H80V16.8H90C90.9199 16.8 91.6666 16.3296 91.6666 15.75C91.6666 15.1704 90.9199 14.7 90 14.7H80V5.25004C80 3.48395 77.8033 2.10004 75 2.10004H65C62.2434 2.10004 60 3.51336 60 5.25004V60.9001H43.3334V6.3H55C55.9199 6.3 56.6666 5.82959 56.6666 5.25004C56.6666 4.67049 55.9199 4.20008 55 4.20008H43.3334V3.15C43.3334 1.38391 41.1367 0 38.3334 0H21.6668C18.9102 0 16.6668 1.41332 16.6668 3.15V12.6H8.3334C7.41348 12.6 6.6668 13.0704 6.6668 13.65C6.6668 14.2295 7.41348 14.6999 8.3334 14.6999H16.6668V60.9H5C4.08164 60.9 3.3334 60.4286 3.3334 59.85V9.45C3.3334 8.87143 4.08164 8.40004 5 8.40004H11.6666C12.5865 8.40004 13.3332 7.92963 13.3332 7.35008C13.3332 6.77053 12.5867 6.3 11.6666 6.3H5C2.24336 6.3 0 7.71332 0 9.45V59.85C0 61.5867 2.24336 63 5 63H95C97.7566 63 100 61.5867 100 59.85V11.55C100 9.81336 97.7566 8.40004 95 8.40004ZM40 60.9H20V8.40004H35C35.9199 8.40004 36.6666 7.92963 36.6666 7.35008C36.6666 6.77053 35.9199 6.3 35 6.3H20V3.15C20 2.56097 20.7316 2.10004 21.6666 2.10004H38.3332C39.2832 2.10004 39.9998 2.5515 39.9998 3.15V60.9H40ZM76.6666 60.9H63.3332V10.5H71.6666C72.5865 10.5 73.3332 10.0296 73.3332 9.45C73.3332 8.87045 72.5865 8.40004 71.6666 8.40004H63.3332V5.25004C63.3332 4.66102 64.0648 4.20008 64.9998 4.20008H75C75.95 4.20008 76.6666 4.65154 76.6666 5.25004V60.9Z" fill="white"/>
<path d="M11.6668 50.3999H8.33359C7.41367 50.3999 6.66699 50.8703 6.66699 51.4499C6.66699 52.0294 7.41367 52.4998 8.33359 52.4998H11.667C12.5869 52.4998 13.3336 52.0294 13.3336 51.4499C13.3336 50.8703 12.5869 50.3999 11.6668 50.3999Z" fill="white"/>
<path d="M11.6668 54.5999H8.33359C7.41367 54.5999 6.66699 55.0703 6.66699 55.6498C6.66699 56.2294 7.41367 56.6998 8.33359 56.6998H11.667C12.5869 56.6998 13.3336 56.2294 13.3336 55.6498C13.3336 55.0703 12.5869 54.5999 11.6668 54.5999Z" fill="white"/>
<path d="M55.0002 50.3999H48.3336C47.4137 50.3999 46.667 50.8703 46.667 51.4499C46.667 52.0294 47.4137 52.4998 48.3336 52.4998H55.0002C55.9201 52.4998 56.6668 52.0294 56.6668 51.4499C56.6668 50.8703 55.9201 50.3999 55.0002 50.3999Z" fill="white"/>
<path d="M11.6668 25.2H8.33359C7.41367 25.2 6.66699 25.6704 6.66699 26.2499C6.66699 26.8295 7.41367 27.2999 8.33359 27.2999H11.667C12.5869 27.2999 13.3336 26.8295 13.3336 26.2499C13.3336 25.6704 12.5869 25.2 11.6668 25.2Z" fill="white"/>
<path d="M11.6668 29.3999H8.33359C7.41367 29.3999 6.66699 29.8703 6.66699 30.4499C6.66699 31.0294 7.41348 31.4999 8.33359 31.4999H11.667C12.5869 31.4999 13.3336 31.0295 13.3336 30.45C13.3336 29.8704 12.5869 29.3999 11.6668 29.3999Z" fill="white"/>
</svg>
