<svg width="100" height="100" viewBox="0 0 100 100" fill="none" xmlns="http://www.w3.org/2000/svg">
<path d="M50 0C22.4 0 0 22.4 0 50C0 77.6002 22.4 100 50 100C77.6002 100 100 77.6 100 50C100 22.4 77.6002 0 50 0ZM16 19.2C23.2 26.8002 27.6 37.2 28.0001 48.0001H4.00001C4.40011 36.8001 8.80002 26.8002 16 19.2ZM4.00001 52.0001H28.0001C27.6 63.2001 23.2 73.2001 16 80.8002C8.80002 73.2001 4.40011 63.2001 4.00001 52.0001ZM48.0001 96.0002C36.8001 95.6003 26.4001 91.2002 18.8001 84.0002C26.4001 75.6003 31.6002 64.4 32.0001 52.0001H48.0001V96.0002ZM48.0001 48.0001H32.0001C31.6 35.6 26.8002 24.8001 18.8001 16C26.4001 8.80002 36.8001 4.40011 48.0001 4.00001V48.0001ZM96.0002 48.0001H72.0002C72.4 36.8001 76.8002 26.8002 84.0002 19.2C91.2002 26.8002 95.6003 36.8001 96.0002 48.0001ZM52.0001 4.00001C63.2001 4.40011 73.6002 8.80002 81.2001 16C73.6002 24.4002 68.4 35.6 68.0001 48.0001H52.0001V4.00001ZM52.0001 96.0002V52.0001H68.0001C68.4 64.4 73.2001 75.2002 81.2001 84.0002C73.6002 90.8003 63.2001 95.6003 52.0001 96.0002ZM84.0002 80.8002C76.8002 73.2001 72.4 62.8002 72.0002 52.0001H96.0002C95.6003 63.2001 91.2002 73.2001 84.0002 80.8002Z" fill="white"/>
</svg>
