<svg width="95" height="95" viewBox="0 0 95 95" fill="none" xmlns="http://www.w3.org/2000/svg">
<path fill-rule="evenodd" clip-rule="evenodd" d="M16.9643 0C16.0645 8.99679e-05 15.2015 0.357581 14.5653 0.993846C13.929 1.63011 13.5715 2.49304 13.5714 3.39286V6.78571H6.78571C3.07824 6.78571 0 9.86395 0 13.5714V88.2143C0 91.9218 3.07824 95 6.78571 95H47.5H88.2143C91.9218 95 95 91.9218 95 88.2143V13.5714C95 9.86395 91.9218 6.78571 88.2143 6.78571H81.4286V3.39286C81.4285 2.49304 81.071 1.63011 80.4347 0.993846C79.7985 0.357581 78.9355 8.99679e-05 78.0357 0H61.0714C55.5281 0 50.6008 2.70679 47.5 6.85198C44.3992 2.70679 39.4719 0 33.9286 0H16.9643ZM20.3571 6.78571H33.9286C39.5902 6.78571 44.1071 11.3026 44.1071 16.9643V78.4068C41.2388 76.1878 37.8134 74.6429 33.9286 74.6429H20.3571V10.1786V6.78571ZM61.0714 6.78571H74.6429V10.1786V74.6429H61.0714C57.1866 74.6429 53.7612 76.1878 50.8929 78.4068V16.9643C50.8929 11.3026 55.4098 6.78571 61.0714 6.78571ZM6.78571 13.5714H13.5714V78.0357C13.5715 78.9355 13.929 79.7985 14.5653 80.4347C15.2015 81.071 16.0645 81.4285 16.9643 81.4286H33.9286C38.3958 81.4286 42.1387 84.2466 43.524 88.2143H6.78571V13.5714ZM81.4286 13.5714H88.2143V88.2143H51.476C52.8613 84.2466 56.6042 81.4286 61.0714 81.4286H78.0357C78.9355 81.4285 79.7985 81.071 80.4347 80.4347C81.071 79.7985 81.4285 78.9355 81.4286 78.0357V13.5714Z" fill="white"/>
</svg>
