<svg width="54" height="101" viewBox="0 0 54 101" fill="none" xmlns="http://www.w3.org/2000/svg">
<path d="M0.325396 74.6772C0.94101 77.3026 2.66778 79.4248 4.89751 80.2384C5.16176 80.3375 5.14463 80.4549 4.72587 81.4704C4.35714 82.4079 4.2886 82.8772 4.26509 84.2666C4.24762 87.7499 5.75625 90.4776 8.39738 91.7433C9.28873 92.1783 9.636 92.2192 13.7557 92.2986L18.1733 92.3794L18.231 94.0823C18.3034 96.1375 18.6784 97.2548 19.6653 98.434C21.014 100.045 21.2619 100.105 26.4409 100.131C31.6199 100.157 31.8684 100.1 33.2333 98.502C34.2319 97.3328 34.6181 96.2193 34.7111 94.1649L34.7858 92.4627L39.204 92.4262C43.3243 92.3881 43.672 92.3507 44.5677 91.9247C47.2214 90.6855 48.7573 87.973 48.7747 84.4897C48.7652 83.1002 48.7013 82.6302 48.342 81.6891C47.9335 80.6694 47.9175 80.5519 48.1827 80.4554C51.3653 79.3363 53.4525 75.5698 52.9415 71.8881C52.462 68.5197 50.522 66.0246 47.8284 65.3262C47.2665 65.1864 44.7518 65.0955 40.9296 65.0764L34.8902 65.0461L34.9648 50.1735L35.0393 35.3009L41.0788 35.3311C44.901 35.3503 47.4164 35.2846 47.9797 35.1505C50.6801 34.4791 52.6451 32.0036 53.1583 28.6401C53.7063 24.9638 51.6569 21.1766 48.4857 20.0256C48.2214 19.9264 48.2386 19.8091 48.6573 18.7936C49.0261 17.8561 49.0946 17.3867 49.1181 15.9974C49.1356 12.5141 47.627 9.78634 44.9858 8.52063C44.0945 8.08563 43.7472 8.04475 39.6275 7.96539L35.2099 7.88453L35.1522 6.18167C35.0798 4.12649 34.7048 3.00914 33.7179 1.83001C32.3692 0.218528 32.1213 0.158576 26.9423 0.132611C21.7633 0.106645 21.5148 0.164108 20.1499 1.76198C19.1513 2.93116 18.7651 4.0447 18.6721 6.09905L18.5974 7.80124L14.1792 7.8378C10.0589 7.87585 9.7112 7.91325 8.81554 8.33929C6.16184 9.57845 4.62594 12.2909 4.60848 15.7743C4.61806 17.1638 4.68189 17.6338 5.0412 18.5749C5.44975 19.5946 5.46571 19.7121 5.20048 19.8086C2.01789 20.9277 -0.0693363 24.6942 0.441703 28.3758C0.921217 31.7442 2.86122 34.2393 5.55484 34.9378C6.11673 35.0776 8.63138 35.1685 12.4536 35.1876L18.493 35.2179L18.4184 50.0905L18.3439 64.9631L12.3045 64.9328C5.91757 64.9008 5.12296 64.9751 3.7123 65.8095C2.73312 66.3917 1.43505 67.8725 0.966355 68.9465C0.162912 70.782 -0.0628869 72.914 0.325396 74.6772ZM3.98629 70.5664C4.20345 70.1565 4.68595 69.6305 5.03469 69.3779L5.66581 68.9113L26.5969 69.0163L47.528 69.1212L48.1545 69.594C48.5006 69.8502 48.9776 70.4201 49.2237 70.8519C49.5844 71.519 49.6653 71.8717 49.66 72.9284C49.6525 74.4353 49.2177 75.3529 48.1212 76.228L47.4898 76.7532L26.5587 76.6483L5.62755 76.5433L5.00143 76.0118C4.34223 75.4801 3.68538 74.4788 3.52335 73.793C3.32901 72.9506 3.56891 71.3079 3.98629 70.5664ZM4.19687 25.2635C4.43048 24.8733 4.89663 24.3081 5.26202 24.036L5.89343 23.5107L26.8245 23.6157L47.7557 23.7206L48.3818 24.2521C49.4694 25.1382 49.895 26.0601 49.8875 27.567C49.8822 28.6237 49.7977 28.9755 49.4303 29.6391C49.18 30.0684 48.6973 30.6335 48.3485 30.8861L47.7174 31.3526L27.15 31.3082C12.9366 31.2565 6.36791 31.1845 5.92184 31.0452C5.12889 30.7868 4.04302 29.5485 3.81588 28.6472C3.55624 27.6282 3.72955 26.0635 4.19687 25.2635ZM8.03052 82.4067C8.24749 82.036 8.71353 81.4904 9.06248 81.1986L9.71044 80.6735L26.5381 80.7578L43.3491 80.8421L43.9589 81.3344C44.305 81.6101 44.782 82.18 45.0281 82.5922C45.4055 83.2399 45.47 83.5729 45.4645 84.6688C45.459 85.7647 45.3911 86.097 45.0073 86.7409C44.7571 87.1506 44.2744 87.7157 43.9255 87.9879L43.3109 88.4741L26.8801 88.4504C15.9925 88.4154 10.218 88.3473 9.78849 88.2082C9.04508 87.9696 7.87696 86.633 7.64963 85.7708C7.40624 84.8107 7.59649 83.1678 8.03052 82.4067ZM8.37588 13.5231C8.59284 13.1523 9.05889 12.6067 9.40783 12.3149L10.0558 11.7898L26.8834 11.8741L43.6945 11.9584L44.3043 12.4507C44.6504 12.7264 45.1274 13.2964 45.3735 13.7086C45.7508 14.3562 45.8153 14.6893 45.8098 15.7851C45.8043 16.881 45.7365 17.2134 45.3527 17.8572C45.1024 18.2669 44.6197 18.832 44.2709 19.1043L43.6562 19.5904L27.2254 19.5668C16.3378 19.5317 10.5634 19.4637 10.1338 19.3245C9.39043 19.086 8.22231 17.7494 7.99498 16.8871C7.75159 15.927 7.94184 14.2841 8.37588 13.5231ZM26.4962 92.4016L31.4767 92.4266L31.4036 93.7961C31.3481 94.97 31.264 95.2435 30.8811 95.7113L30.4317 96.2374L26.4771 96.2176C22.7542 96.1989 22.5061 96.1781 22.1605 95.8046C21.6503 95.254 21.5202 94.8033 21.5267 93.4922L21.5158 92.3766L26.4962 92.4016ZM23.4569 35.2428L25.095 35.251L25.1082 42.5114L25.1215 49.7719L25.6647 50.3421C26.3559 51.0892 27.0177 51.0925 27.7164 50.3524L28.2653 49.7876L28.3513 42.5277L28.4374 35.2678L30.0754 35.276L31.7301 35.2843L31.6555 50.1569L31.5809 65.0295L26.617 65.0046L21.6531 64.9797L21.7277 50.1071L21.8023 35.2345L23.4569 35.2428ZM22.5021 4.55267L22.9515 4.02655L26.9227 4.04646L30.8938 4.06637L31.3379 4.59697C31.7161 5.06855 31.7975 5.34293 31.8412 6.51733L31.9005 7.88751L26.9035 7.86246L21.9065 7.8374L21.9796 6.46789C22.0351 5.29399 22.1192 5.02043 22.5021 4.55267Z" fill="white"/>
<path d="M25.1495 57.4627C25.5737 58.6781 26.9617 59.0569 27.7274 58.141C27.9605 57.8681 28.1949 57.3214 28.263 56.9303C28.3489 56.3045 28.2836 56.1281 27.7737 55.5188C27.0006 54.5952 26.3554 54.5724 25.5731 55.4882C25.0072 56.1508 24.8887 56.6786 25.1495 57.4627Z" fill="white"/>
</svg>
